G04 #@! TF.GenerationSoftware,KiCad,Pcbnew,5.1.5-52549c5~84~ubuntu18.04.1*
G04 #@! TF.CreationDate,2020-01-16T02:56:41-05:00*
G04 #@! TF.ProjectId,PiADC2,50694144-4332-42e6-9b69-6361645f7063,1.0*
G04 #@! TF.SameCoordinates,Original*
G04 #@! TF.FileFunction,Copper,L2,Bot*
G04 #@! TF.FilePolarity,Positive*
%FSLAX46Y46*%
G04 Gerber Fmt 4.6, Leading zero omitted, Abs format (unit mm)*
G04 Created by KiCad (PCBNEW 5.1.5-52549c5~84~ubuntu18.04.1) date 2020-01-16 02:56:41*
%MOMM*%
%LPD*%
G04 APERTURE LIST*
%ADD10C,6.000000*%
%ADD11C,1.524000*%
%ADD12C,2.000000*%
%ADD13O,1.700000X1.700000*%
%ADD14R,1.700000X1.700000*%
%ADD15O,1.600000X2.400000*%
%ADD16R,1.600000X2.400000*%
%ADD17R,1.750000X1.750000*%
%ADD18C,1.750000*%
%ADD19R,1.000000X1.000000*%
%ADD20C,1.000000*%
%ADD21O,1.000000X1.000000*%
%ADD22C,1.200000*%
%ADD23C,0.100000*%
%ADD24C,0.800000*%
%ADD25C,0.300000*%
%ADD26C,0.250000*%
%ADD27C,0.254000*%
G04 APERTURE END LIST*
D10*
X168700000Y-126470000D03*
X110700000Y-126470000D03*
X168700000Y-77470000D03*
X110700000Y-77470000D03*
D11*
X115570000Y-76200000D03*
X115570000Y-78740000D03*
X118110000Y-76200000D03*
X118110000Y-78740000D03*
X128270000Y-76200000D03*
X125730000Y-76200000D03*
X123190000Y-76200000D03*
X120650000Y-76200000D03*
X120650000Y-78740000D03*
X123190000Y-78740000D03*
X125730000Y-78740000D03*
X128270000Y-78740000D03*
X156210000Y-76200000D03*
X158750000Y-76200000D03*
X161290000Y-76200000D03*
X163830000Y-76200000D03*
X163830000Y-78740000D03*
X161290000Y-78740000D03*
X158750000Y-78740000D03*
X156210000Y-78740000D03*
X153670000Y-76200000D03*
X153670000Y-78740000D03*
X151130000Y-76200000D03*
X151130000Y-78740000D03*
X148590000Y-78740000D03*
X148590000Y-76200000D03*
X130810000Y-76200000D03*
X130810000Y-78740000D03*
X133350000Y-78740000D03*
X133350000Y-76200000D03*
X135890000Y-76200000D03*
X135890000Y-78740000D03*
X146050000Y-78740000D03*
X146050000Y-76200000D03*
X143510000Y-76200000D03*
X143510000Y-78740000D03*
X140970000Y-78740000D03*
X140970000Y-76200000D03*
X138430000Y-76200000D03*
X138430000Y-78740000D03*
D12*
X165100000Y-83240000D03*
X165100000Y-93980000D03*
D13*
X118745000Y-126365000D03*
X121285000Y-126365000D03*
X123825000Y-126365000D03*
D14*
X126365000Y-126365000D03*
D15*
X151765000Y-107315000D03*
X159385000Y-114935000D03*
X154305000Y-107315000D03*
X156845000Y-114935000D03*
X156845000Y-107315000D03*
X154305000Y-114935000D03*
X159385000Y-107315000D03*
D16*
X151765000Y-114935000D03*
D17*
X159325000Y-126365000D03*
D18*
X151825000Y-126365000D03*
X156825000Y-126365000D03*
X154325000Y-126365000D03*
D17*
X144720000Y-126365000D03*
D18*
X137220000Y-126365000D03*
X142220000Y-126365000D03*
X139720000Y-126365000D03*
D15*
X137160000Y-107315000D03*
X144780000Y-114935000D03*
X139700000Y-107315000D03*
X142240000Y-114935000D03*
X142240000Y-107315000D03*
X139700000Y-114935000D03*
X144780000Y-107315000D03*
D16*
X137160000Y-114935000D03*
D19*
X141605000Y-85320000D03*
X141605000Y-82320000D03*
D20*
X147105000Y-84770000D03*
X147105000Y-82870000D03*
D21*
X129540000Y-90170000D03*
D19*
X130810000Y-90170000D03*
D22*
X113665000Y-110935000D03*
X113665000Y-112935000D03*
X113665000Y-114935000D03*
X113665000Y-116935000D03*
X113665000Y-118935000D03*
X111665000Y-110935000D03*
X111665000Y-112935000D03*
X111665000Y-114935000D03*
X111665000Y-116935000D03*
G04 #@! TA.AperFunction,ComponentPad*
D23*
G36*
X112039505Y-118336204D02*
G01*
X112063773Y-118339804D01*
X112087572Y-118345765D01*
X112110671Y-118354030D01*
X112132850Y-118364520D01*
X112153893Y-118377132D01*
X112173599Y-118391747D01*
X112191777Y-118408223D01*
X112208253Y-118426401D01*
X112222868Y-118446107D01*
X112235480Y-118467150D01*
X112245970Y-118489329D01*
X112254235Y-118512428D01*
X112260196Y-118536227D01*
X112263796Y-118560495D01*
X112265000Y-118584999D01*
X112265000Y-119285001D01*
X112263796Y-119309505D01*
X112260196Y-119333773D01*
X112254235Y-119357572D01*
X112245970Y-119380671D01*
X112235480Y-119402850D01*
X112222868Y-119423893D01*
X112208253Y-119443599D01*
X112191777Y-119461777D01*
X112173599Y-119478253D01*
X112153893Y-119492868D01*
X112132850Y-119505480D01*
X112110671Y-119515970D01*
X112087572Y-119524235D01*
X112063773Y-119530196D01*
X112039505Y-119533796D01*
X112015001Y-119535000D01*
X111314999Y-119535000D01*
X111290495Y-119533796D01*
X111266227Y-119530196D01*
X111242428Y-119524235D01*
X111219329Y-119515970D01*
X111197150Y-119505480D01*
X111176107Y-119492868D01*
X111156401Y-119478253D01*
X111138223Y-119461777D01*
X111121747Y-119443599D01*
X111107132Y-119423893D01*
X111094520Y-119402850D01*
X111084030Y-119380671D01*
X111075765Y-119357572D01*
X111069804Y-119333773D01*
X111066204Y-119309505D01*
X111065000Y-119285001D01*
X111065000Y-118584999D01*
X111066204Y-118560495D01*
X111069804Y-118536227D01*
X111075765Y-118512428D01*
X111084030Y-118489329D01*
X111094520Y-118467150D01*
X111107132Y-118446107D01*
X111121747Y-118426401D01*
X111138223Y-118408223D01*
X111156401Y-118391747D01*
X111176107Y-118377132D01*
X111197150Y-118364520D01*
X111219329Y-118354030D01*
X111242428Y-118345765D01*
X111266227Y-118339804D01*
X111290495Y-118336204D01*
X111314999Y-118335000D01*
X112015001Y-118335000D01*
X112039505Y-118336204D01*
G37*
G04 #@! TD.AperFunction*
D22*
X113665000Y-95695000D03*
X113665000Y-97695000D03*
X113665000Y-99695000D03*
X113665000Y-101695000D03*
X113665000Y-103695000D03*
X111665000Y-95695000D03*
X111665000Y-97695000D03*
X111665000Y-99695000D03*
X111665000Y-101695000D03*
G04 #@! TA.AperFunction,ComponentPad*
D23*
G36*
X112039505Y-103096204D02*
G01*
X112063773Y-103099804D01*
X112087572Y-103105765D01*
X112110671Y-103114030D01*
X112132850Y-103124520D01*
X112153893Y-103137132D01*
X112173599Y-103151747D01*
X112191777Y-103168223D01*
X112208253Y-103186401D01*
X112222868Y-103206107D01*
X112235480Y-103227150D01*
X112245970Y-103249329D01*
X112254235Y-103272428D01*
X112260196Y-103296227D01*
X112263796Y-103320495D01*
X112265000Y-103344999D01*
X112265000Y-104045001D01*
X112263796Y-104069505D01*
X112260196Y-104093773D01*
X112254235Y-104117572D01*
X112245970Y-104140671D01*
X112235480Y-104162850D01*
X112222868Y-104183893D01*
X112208253Y-104203599D01*
X112191777Y-104221777D01*
X112173599Y-104238253D01*
X112153893Y-104252868D01*
X112132850Y-104265480D01*
X112110671Y-104275970D01*
X112087572Y-104284235D01*
X112063773Y-104290196D01*
X112039505Y-104293796D01*
X112015001Y-104295000D01*
X111314999Y-104295000D01*
X111290495Y-104293796D01*
X111266227Y-104290196D01*
X111242428Y-104284235D01*
X111219329Y-104275970D01*
X111197150Y-104265480D01*
X111176107Y-104252868D01*
X111156401Y-104238253D01*
X111138223Y-104221777D01*
X111121747Y-104203599D01*
X111107132Y-104183893D01*
X111094520Y-104162850D01*
X111084030Y-104140671D01*
X111075765Y-104117572D01*
X111069804Y-104093773D01*
X111066204Y-104069505D01*
X111065000Y-104045001D01*
X111065000Y-103344999D01*
X111066204Y-103320495D01*
X111069804Y-103296227D01*
X111075765Y-103272428D01*
X111084030Y-103249329D01*
X111094520Y-103227150D01*
X111107132Y-103206107D01*
X111121747Y-103186401D01*
X111138223Y-103168223D01*
X111156401Y-103151747D01*
X111176107Y-103137132D01*
X111197150Y-103124520D01*
X111219329Y-103114030D01*
X111242428Y-103105765D01*
X111266227Y-103099804D01*
X111290495Y-103096204D01*
X111314999Y-103095000D01*
X112015001Y-103095000D01*
X112039505Y-103096204D01*
G37*
G04 #@! TD.AperFunction*
D24*
X121285000Y-95885000D03*
X121285000Y-111125000D03*
X118110000Y-92075000D03*
X125095000Y-96520000D03*
X128270000Y-106045000D03*
X127000000Y-111125000D03*
X128270000Y-121285000D03*
X120015000Y-123825000D03*
X122555000Y-108585000D03*
X128905000Y-88265000D03*
X155575000Y-83185000D03*
X141605000Y-97155000D03*
X145415000Y-90805000D03*
X143510000Y-105410000D03*
X165735000Y-104140000D03*
X123825000Y-97155000D03*
X118745000Y-83185000D03*
X156845000Y-95250000D03*
X156845000Y-88900000D03*
X130810000Y-84455000D03*
X155575000Y-86995000D03*
X135890000Y-86995000D03*
X127000000Y-83185000D03*
X136525000Y-85725000D03*
X155575000Y-85725000D03*
X125730000Y-106045000D03*
X125730000Y-121285000D03*
X121285000Y-93345000D03*
X124460000Y-106045000D03*
X124460000Y-121285000D03*
X118745000Y-93980000D03*
X154305000Y-85090000D03*
D25*
X115570000Y-76200000D02*
X116647630Y-76200000D01*
X116840000Y-76200000D02*
X116840000Y-84455000D01*
X116840000Y-76200000D02*
X118110000Y-76200000D01*
X116647630Y-76200000D02*
X116840000Y-76200000D01*
X116840000Y-84455000D02*
X118110000Y-85725000D01*
X118110000Y-85725000D02*
X118110000Y-92075000D01*
X118110000Y-92075000D02*
X117475000Y-92710000D01*
X117475000Y-98425000D02*
X121285000Y-102235000D01*
X121285000Y-122555000D02*
X120015000Y-123825000D01*
X121285000Y-111125000D02*
X121285000Y-122555000D01*
X111665000Y-110935000D02*
X112745000Y-109855000D01*
X121285000Y-102235000D02*
X121285000Y-109855000D01*
X112745000Y-109855000D02*
X121285000Y-109855000D01*
X121285000Y-109855000D02*
X121285000Y-111125000D01*
X111665000Y-95695000D02*
X113380000Y-93980000D01*
X117475000Y-92710000D02*
X117475000Y-93980000D01*
X113380000Y-93980000D02*
X117475000Y-93980000D01*
X117475000Y-93980000D02*
X117475000Y-98425000D01*
X126365000Y-123190000D02*
X128270000Y-121285000D01*
X126365000Y-126365000D02*
X126365000Y-123190000D01*
X128270000Y-112395000D02*
X127000000Y-111125000D01*
X128270000Y-121285000D02*
X128270000Y-112395000D01*
X127000000Y-107315000D02*
X128270000Y-106045000D01*
X127000000Y-111125000D02*
X127000000Y-107315000D01*
X128270000Y-99695000D02*
X125095000Y-96520000D01*
X128270000Y-106045000D02*
X128270000Y-99695000D01*
X124460000Y-95885000D02*
X125095000Y-96520000D01*
X121285000Y-95885000D02*
X124460000Y-95885000D01*
X142875000Y-88265000D02*
X145415000Y-90805000D01*
X128905000Y-88265000D02*
X142875000Y-88265000D01*
X141605000Y-94615000D02*
X145415000Y-90805000D01*
X141605000Y-97155000D02*
X141605000Y-94615000D01*
X155974999Y-83584999D02*
X155575000Y-83185000D01*
X156325001Y-83935001D02*
X155974999Y-83584999D01*
X156325001Y-87355001D02*
X156325001Y-83935001D01*
X152875002Y-90805000D02*
X156325001Y-87355001D01*
X145415000Y-90805000D02*
X152875002Y-90805000D01*
X141605000Y-97155000D02*
X141605000Y-100330000D01*
X141605000Y-100330000D02*
X137160000Y-104775000D01*
X143510000Y-105410000D02*
X137160000Y-105410000D01*
X137160000Y-104775000D02*
X137160000Y-105410000D01*
X137160000Y-105410000D02*
X137160000Y-107315000D01*
X145415000Y-100330000D02*
X141605000Y-100330000D01*
D26*
X161925000Y-100330000D02*
X165735000Y-104140000D01*
X145415000Y-100330000D02*
X161925000Y-100330000D01*
D25*
X156845000Y-95250000D02*
X156845000Y-88900000D01*
D26*
X165100000Y-76200000D02*
X166370000Y-74930000D01*
X165100000Y-78547630D02*
X165100000Y-76200000D01*
X164907630Y-78740000D02*
X165100000Y-78547630D01*
X163830000Y-78740000D02*
X164907630Y-78740000D01*
X118110000Y-79817630D02*
X122747370Y-84455000D01*
X118110000Y-78740000D02*
X118110000Y-79817630D01*
X122747370Y-84455000D02*
X126365000Y-84455000D01*
X126365000Y-84455000D02*
X130810000Y-84455000D01*
D25*
X130810000Y-84455000D02*
X133350000Y-86995000D01*
X135890000Y-86995000D02*
X155575000Y-86995000D01*
X133350000Y-86995000D02*
X135890000Y-86995000D01*
D26*
X120650000Y-78740000D02*
X120650000Y-80645000D01*
X123190000Y-83185000D02*
X127000000Y-83185000D01*
X120650000Y-80645000D02*
X123190000Y-83185000D01*
D25*
X127000000Y-83185000D02*
X130175000Y-83185000D01*
X133190002Y-85725000D02*
X134620000Y-85725000D01*
X130650002Y-83185000D02*
X133190002Y-85725000D01*
X130175000Y-83185000D02*
X130650002Y-83185000D01*
X134620000Y-85725000D02*
X136525000Y-85725000D01*
X155129999Y-86170001D02*
X155575000Y-85725000D01*
X136525000Y-85725000D02*
X136970001Y-86170001D01*
X136970001Y-86170001D02*
X155129999Y-86170001D01*
D26*
X125730000Y-106241998D02*
X125730000Y-106045000D01*
X125730000Y-121285000D02*
X125730000Y-106241998D01*
X125730000Y-102235000D02*
X125730000Y-106045000D01*
X120015000Y-96520000D02*
X125730000Y-102235000D01*
D25*
X123825000Y-123190000D02*
X125730000Y-121285000D01*
X123825000Y-126365000D02*
X123825000Y-123190000D01*
D26*
X121285000Y-93345000D02*
X120015000Y-94615000D01*
X120015000Y-94615000D02*
X120015000Y-96520000D01*
X124460000Y-121285000D02*
X124460000Y-106045000D01*
X124460000Y-102870000D02*
X124460000Y-106045000D01*
X118745000Y-97155000D02*
X124460000Y-102870000D01*
D25*
X121285000Y-124460000D02*
X124460000Y-121285000D01*
X121285000Y-126365000D02*
X121285000Y-124460000D01*
D26*
X118745000Y-93980000D02*
X118745000Y-97155000D01*
D25*
X154305000Y-83344998D02*
X155734998Y-81915000D01*
X154305000Y-85090000D02*
X154305000Y-83344998D01*
X163775000Y-81915000D02*
X165100000Y-83240000D01*
X155734998Y-81915000D02*
X163775000Y-81915000D01*
D27*
G36*
X114173000Y-78602408D02*
G01*
X114173000Y-78877592D01*
X114226686Y-79147490D01*
X114331995Y-79401727D01*
X114484880Y-79630535D01*
X114679465Y-79825120D01*
X114908273Y-79978005D01*
X115162510Y-80083314D01*
X115432408Y-80137000D01*
X115707592Y-80137000D01*
X115977490Y-80083314D01*
X116055000Y-80051208D01*
X116055001Y-84416437D01*
X116051203Y-84455000D01*
X116066359Y-84608886D01*
X116111246Y-84756859D01*
X116111247Y-84756860D01*
X116184139Y-84893233D01*
X116206979Y-84921063D01*
X116257655Y-84982812D01*
X116257659Y-84982816D01*
X116282237Y-85012764D01*
X116312185Y-85037342D01*
X117325000Y-86050158D01*
X117325001Y-91396288D01*
X117306063Y-91415226D01*
X117192795Y-91584744D01*
X117114774Y-91773102D01*
X117075000Y-91973061D01*
X117075000Y-91999843D01*
X116947190Y-92127653D01*
X116917236Y-92152236D01*
X116819138Y-92271768D01*
X116746246Y-92408141D01*
X116701359Y-92556114D01*
X116690000Y-92671440D01*
X116690000Y-92671447D01*
X116686203Y-92710000D01*
X116690000Y-92748553D01*
X116690000Y-93195000D01*
X113418552Y-93195000D01*
X113379999Y-93191203D01*
X113341446Y-93195000D01*
X113341439Y-93195000D01*
X113240490Y-93204943D01*
X113226112Y-93206359D01*
X113193266Y-93216323D01*
X113078140Y-93251246D01*
X112941767Y-93324138D01*
X112890928Y-93365861D01*
X112852187Y-93397655D01*
X112852184Y-93397658D01*
X112822236Y-93422236D01*
X112797658Y-93452184D01*
X111789311Y-94460532D01*
X111786637Y-94460000D01*
X111543363Y-94460000D01*
X111304764Y-94507460D01*
X111080008Y-94600557D01*
X110877733Y-94735713D01*
X110705713Y-94907733D01*
X110570557Y-95110008D01*
X110477460Y-95334764D01*
X110430000Y-95573363D01*
X110430000Y-95816637D01*
X110477460Y-96055236D01*
X110570557Y-96279992D01*
X110705713Y-96482267D01*
X110877733Y-96654287D01*
X111015733Y-96746496D01*
X110994841Y-96845236D01*
X111665000Y-97515395D01*
X112335159Y-96845236D01*
X112314267Y-96746496D01*
X112452267Y-96654287D01*
X112624287Y-96482267D01*
X112665000Y-96421336D01*
X112705713Y-96482267D01*
X112877733Y-96654287D01*
X112938664Y-96695000D01*
X112877733Y-96735713D01*
X112705713Y-96907733D01*
X112613504Y-97045733D01*
X112514764Y-97024841D01*
X111844605Y-97695000D01*
X112514764Y-98365159D01*
X112613504Y-98344267D01*
X112705713Y-98482267D01*
X112877733Y-98654287D01*
X112938664Y-98695000D01*
X112877733Y-98735713D01*
X112705713Y-98907733D01*
X112613504Y-99045733D01*
X112514764Y-99024841D01*
X111844605Y-99695000D01*
X112514764Y-100365159D01*
X112613504Y-100344267D01*
X112705713Y-100482267D01*
X112877733Y-100654287D01*
X112938664Y-100695000D01*
X112877733Y-100735713D01*
X112705713Y-100907733D01*
X112613504Y-101045733D01*
X112514764Y-101024841D01*
X111844605Y-101695000D01*
X111858748Y-101709143D01*
X111679143Y-101888748D01*
X111665000Y-101874605D01*
X111650858Y-101888748D01*
X111471253Y-101709143D01*
X111485395Y-101695000D01*
X110815236Y-101024841D01*
X110591652Y-101072148D01*
X110490763Y-101293516D01*
X110435000Y-101530313D01*
X110426505Y-101773438D01*
X110465605Y-102013549D01*
X110550798Y-102241418D01*
X110591652Y-102317852D01*
X110815234Y-102365158D01*
X110698128Y-102482264D01*
X110756006Y-102540142D01*
X110710506Y-102564463D01*
X110613815Y-102643815D01*
X110534463Y-102740506D01*
X110475498Y-102850820D01*
X110439188Y-102970518D01*
X110426928Y-103095000D01*
X110430000Y-103409250D01*
X110588750Y-103568000D01*
X111538000Y-103568000D01*
X111538000Y-103548000D01*
X111792000Y-103548000D01*
X111792000Y-103568000D01*
X111812000Y-103568000D01*
X111812000Y-103822000D01*
X111792000Y-103822000D01*
X111792000Y-104771250D01*
X111950750Y-104930000D01*
X112265000Y-104933072D01*
X112389482Y-104920812D01*
X112509180Y-104884502D01*
X112619494Y-104825537D01*
X112716185Y-104746185D01*
X112795537Y-104649494D01*
X112822499Y-104599053D01*
X112877733Y-104654287D01*
X113080008Y-104789443D01*
X113304764Y-104882540D01*
X113543363Y-104930000D01*
X113786637Y-104930000D01*
X114025236Y-104882540D01*
X114249992Y-104789443D01*
X114452267Y-104654287D01*
X114624287Y-104482267D01*
X114759443Y-104279992D01*
X114852540Y-104055236D01*
X114900000Y-103816637D01*
X114900000Y-103573363D01*
X114852540Y-103334764D01*
X114759443Y-103110008D01*
X114624287Y-102907733D01*
X114452267Y-102735713D01*
X114391336Y-102695000D01*
X114452267Y-102654287D01*
X114624287Y-102482267D01*
X114759443Y-102279992D01*
X114852540Y-102055236D01*
X114900000Y-101816637D01*
X114900000Y-101573363D01*
X114852540Y-101334764D01*
X114759443Y-101110008D01*
X114624287Y-100907733D01*
X114452267Y-100735713D01*
X114391336Y-100695000D01*
X114452267Y-100654287D01*
X114624287Y-100482267D01*
X114759443Y-100279992D01*
X114852540Y-100055236D01*
X114900000Y-99816637D01*
X114900000Y-99573363D01*
X114852540Y-99334764D01*
X114759443Y-99110008D01*
X114624287Y-98907733D01*
X114452267Y-98735713D01*
X114391336Y-98695000D01*
X114452267Y-98654287D01*
X114624287Y-98482267D01*
X114759443Y-98279992D01*
X114852540Y-98055236D01*
X114900000Y-97816637D01*
X114900000Y-97573363D01*
X114852540Y-97334764D01*
X114759443Y-97110008D01*
X114624287Y-96907733D01*
X114452267Y-96735713D01*
X114391336Y-96695000D01*
X114452267Y-96654287D01*
X114624287Y-96482267D01*
X114759443Y-96279992D01*
X114852540Y-96055236D01*
X114900000Y-95816637D01*
X114900000Y-95573363D01*
X114852540Y-95334764D01*
X114759443Y-95110008D01*
X114624287Y-94907733D01*
X114481554Y-94765000D01*
X116690000Y-94765000D01*
X116690001Y-98386437D01*
X116686203Y-98425000D01*
X116701359Y-98578886D01*
X116746246Y-98726859D01*
X116779698Y-98789443D01*
X116819139Y-98863233D01*
X116854403Y-98906202D01*
X116892655Y-98952812D01*
X116892659Y-98952816D01*
X116917237Y-98982764D01*
X116947185Y-99007342D01*
X120500000Y-102560157D01*
X120500001Y-109070000D01*
X112783556Y-109070000D01*
X112745000Y-109066203D01*
X112706444Y-109070000D01*
X112706439Y-109070000D01*
X112666026Y-109073980D01*
X112591113Y-109081358D01*
X112443140Y-109126246D01*
X112306767Y-109199138D01*
X112187236Y-109297236D01*
X112162653Y-109327190D01*
X111789311Y-109700532D01*
X111786637Y-109700000D01*
X111543363Y-109700000D01*
X111304764Y-109747460D01*
X111080008Y-109840557D01*
X110877733Y-109975713D01*
X110705713Y-110147733D01*
X110570557Y-110350008D01*
X110477460Y-110574764D01*
X110430000Y-110813363D01*
X110430000Y-111056637D01*
X110477460Y-111295236D01*
X110570557Y-111519992D01*
X110705713Y-111722267D01*
X110877733Y-111894287D01*
X111015733Y-111986496D01*
X110994841Y-112085236D01*
X111665000Y-112755395D01*
X112335159Y-112085236D01*
X112314267Y-111986496D01*
X112452267Y-111894287D01*
X112624287Y-111722267D01*
X112665000Y-111661336D01*
X112705713Y-111722267D01*
X112877733Y-111894287D01*
X112938664Y-111935000D01*
X112877733Y-111975713D01*
X112705713Y-112147733D01*
X112613504Y-112285733D01*
X112514764Y-112264841D01*
X111844605Y-112935000D01*
X112514764Y-113605159D01*
X112613504Y-113584267D01*
X112705713Y-113722267D01*
X112877733Y-113894287D01*
X112938664Y-113935000D01*
X112877733Y-113975713D01*
X112705713Y-114147733D01*
X112613504Y-114285733D01*
X112514764Y-114264841D01*
X111844605Y-114935000D01*
X112514764Y-115605159D01*
X112613504Y-115584267D01*
X112705713Y-115722267D01*
X112877733Y-115894287D01*
X112938664Y-115935000D01*
X112877733Y-115975713D01*
X112705713Y-116147733D01*
X112613504Y-116285733D01*
X112514764Y-116264841D01*
X111844605Y-116935000D01*
X111858748Y-116949143D01*
X111679143Y-117128748D01*
X111665000Y-117114605D01*
X111650858Y-117128748D01*
X111471253Y-116949143D01*
X111485395Y-116935000D01*
X110815236Y-116264841D01*
X110591652Y-116312148D01*
X110490763Y-116533516D01*
X110435000Y-116770313D01*
X110426505Y-117013438D01*
X110465605Y-117253549D01*
X110550798Y-117481418D01*
X110591652Y-117557852D01*
X110815234Y-117605158D01*
X110698128Y-117722264D01*
X110756006Y-117780142D01*
X110710506Y-117804463D01*
X110613815Y-117883815D01*
X110534463Y-117980506D01*
X110475498Y-118090820D01*
X110439188Y-118210518D01*
X110426928Y-118335000D01*
X110430000Y-118649250D01*
X110588750Y-118808000D01*
X111538000Y-118808000D01*
X111538000Y-118788000D01*
X111792000Y-118788000D01*
X111792000Y-118808000D01*
X111812000Y-118808000D01*
X111812000Y-119062000D01*
X111792000Y-119062000D01*
X111792000Y-120011250D01*
X111950750Y-120170000D01*
X112265000Y-120173072D01*
X112389482Y-120160812D01*
X112509180Y-120124502D01*
X112619494Y-120065537D01*
X112716185Y-119986185D01*
X112795537Y-119889494D01*
X112822499Y-119839053D01*
X112877733Y-119894287D01*
X113080008Y-120029443D01*
X113304764Y-120122540D01*
X113543363Y-120170000D01*
X113786637Y-120170000D01*
X114025236Y-120122540D01*
X114249992Y-120029443D01*
X114452267Y-119894287D01*
X114624287Y-119722267D01*
X114759443Y-119519992D01*
X114852540Y-119295236D01*
X114900000Y-119056637D01*
X114900000Y-118813363D01*
X114852540Y-118574764D01*
X114759443Y-118350008D01*
X114624287Y-118147733D01*
X114452267Y-117975713D01*
X114391336Y-117935000D01*
X114452267Y-117894287D01*
X114624287Y-117722267D01*
X114759443Y-117519992D01*
X114852540Y-117295236D01*
X114900000Y-117056637D01*
X114900000Y-116813363D01*
X114852540Y-116574764D01*
X114759443Y-116350008D01*
X114624287Y-116147733D01*
X114452267Y-115975713D01*
X114391336Y-115935000D01*
X114452267Y-115894287D01*
X114624287Y-115722267D01*
X114759443Y-115519992D01*
X114852540Y-115295236D01*
X114900000Y-115056637D01*
X114900000Y-114813363D01*
X114852540Y-114574764D01*
X114759443Y-114350008D01*
X114624287Y-114147733D01*
X114452267Y-113975713D01*
X114391336Y-113935000D01*
X114452267Y-113894287D01*
X114624287Y-113722267D01*
X114759443Y-113519992D01*
X114852540Y-113295236D01*
X114900000Y-113056637D01*
X114900000Y-112813363D01*
X114852540Y-112574764D01*
X114759443Y-112350008D01*
X114624287Y-112147733D01*
X114452267Y-111975713D01*
X114391336Y-111935000D01*
X114452267Y-111894287D01*
X114624287Y-111722267D01*
X114759443Y-111519992D01*
X114852540Y-111295236D01*
X114900000Y-111056637D01*
X114900000Y-110813363D01*
X114865516Y-110640000D01*
X120365618Y-110640000D01*
X120289774Y-110823102D01*
X120250000Y-111023061D01*
X120250000Y-111226939D01*
X120289774Y-111426898D01*
X120367795Y-111615256D01*
X120481063Y-111784774D01*
X120500000Y-111803711D01*
X120500001Y-122229841D01*
X119939843Y-122790000D01*
X119913061Y-122790000D01*
X119713102Y-122829774D01*
X119524744Y-122907795D01*
X119355226Y-123021063D01*
X119211063Y-123165226D01*
X119097795Y-123334744D01*
X119019774Y-123523102D01*
X118980000Y-123723061D01*
X118980000Y-123926939D01*
X119019774Y-124126898D01*
X119097795Y-124315256D01*
X119211063Y-124484774D01*
X119355226Y-124628937D01*
X119524744Y-124742205D01*
X119713102Y-124820226D01*
X119913061Y-124860000D01*
X120116939Y-124860000D01*
X120316898Y-124820226D01*
X120500001Y-124744382D01*
X120500001Y-125103526D01*
X120338368Y-125211525D01*
X120131525Y-125418368D01*
X120009805Y-125600534D01*
X119940178Y-125483645D01*
X119745269Y-125267412D01*
X119511920Y-125093359D01*
X119249099Y-124968175D01*
X119101890Y-124923524D01*
X118872000Y-125044845D01*
X118872000Y-126238000D01*
X118892000Y-126238000D01*
X118892000Y-126492000D01*
X118872000Y-126492000D01*
X118872000Y-127685155D01*
X119101890Y-127806476D01*
X119249099Y-127761825D01*
X119511920Y-127636641D01*
X119745269Y-127462588D01*
X119940178Y-127246355D01*
X120009805Y-127129466D01*
X120131525Y-127311632D01*
X120338368Y-127518475D01*
X120581589Y-127680990D01*
X120851842Y-127792932D01*
X121138740Y-127850000D01*
X121431260Y-127850000D01*
X121718158Y-127792932D01*
X121988411Y-127680990D01*
X122231632Y-127518475D01*
X122438475Y-127311632D01*
X122555000Y-127137240D01*
X122671525Y-127311632D01*
X122878368Y-127518475D01*
X123121589Y-127680990D01*
X123391842Y-127792932D01*
X123678740Y-127850000D01*
X123971260Y-127850000D01*
X124258158Y-127792932D01*
X124528411Y-127680990D01*
X124771632Y-127518475D01*
X124903487Y-127386620D01*
X124925498Y-127459180D01*
X124984463Y-127569494D01*
X125063815Y-127666185D01*
X125160506Y-127745537D01*
X125270820Y-127804502D01*
X125390518Y-127840812D01*
X125515000Y-127853072D01*
X127215000Y-127853072D01*
X127339482Y-127840812D01*
X127459180Y-127804502D01*
X127569494Y-127745537D01*
X127666185Y-127666185D01*
X127745537Y-127569494D01*
X127804502Y-127459180D01*
X127840812Y-127339482D01*
X127853072Y-127215000D01*
X127853072Y-125515000D01*
X127840812Y-125390518D01*
X127804502Y-125270820D01*
X127745537Y-125160506D01*
X127666185Y-125063815D01*
X127569494Y-124984463D01*
X127459180Y-124925498D01*
X127339482Y-124889188D01*
X127215000Y-124876928D01*
X127150000Y-124876928D01*
X127150000Y-123515157D01*
X128345157Y-122320000D01*
X128371939Y-122320000D01*
X128571898Y-122280226D01*
X128760256Y-122202205D01*
X128929774Y-122088937D01*
X129073937Y-121944774D01*
X129187205Y-121775256D01*
X129265226Y-121586898D01*
X129305000Y-121386939D01*
X129305000Y-121183061D01*
X129265226Y-120983102D01*
X129187205Y-120794744D01*
X129073937Y-120625226D01*
X129055000Y-120606289D01*
X129055000Y-112433552D01*
X129058797Y-112394999D01*
X129055000Y-112356446D01*
X129055000Y-112356439D01*
X129043641Y-112241113D01*
X128998754Y-112093140D01*
X128925862Y-111956767D01*
X128827764Y-111837236D01*
X128797815Y-111812658D01*
X128035000Y-111049843D01*
X128035000Y-111023061D01*
X127995226Y-110823102D01*
X127917205Y-110634744D01*
X127803937Y-110465226D01*
X127785000Y-110446289D01*
X127785000Y-107640157D01*
X128345158Y-107080000D01*
X128371939Y-107080000D01*
X128571898Y-107040226D01*
X128760256Y-106962205D01*
X128929774Y-106848937D01*
X129073937Y-106704774D01*
X129187205Y-106535256D01*
X129265226Y-106346898D01*
X129305000Y-106146939D01*
X129305000Y-105943061D01*
X129265226Y-105743102D01*
X129187205Y-105554744D01*
X129073937Y-105385226D01*
X129055000Y-105366289D01*
X129055000Y-99733552D01*
X129058797Y-99694999D01*
X129055000Y-99656446D01*
X129055000Y-99656439D01*
X129043641Y-99541113D01*
X128998754Y-99393140D01*
X128925862Y-99256767D01*
X128827764Y-99137236D01*
X128797816Y-99112658D01*
X126130000Y-96444843D01*
X126130000Y-96418061D01*
X126090226Y-96218102D01*
X126012205Y-96029744D01*
X125898937Y-95860226D01*
X125754774Y-95716063D01*
X125585256Y-95602795D01*
X125396898Y-95524774D01*
X125196939Y-95485000D01*
X125170157Y-95485000D01*
X125042347Y-95357190D01*
X125017764Y-95327236D01*
X124898233Y-95229138D01*
X124761860Y-95156246D01*
X124613887Y-95111359D01*
X124498561Y-95100000D01*
X124498553Y-95100000D01*
X124460000Y-95096203D01*
X124421447Y-95100000D01*
X121963711Y-95100000D01*
X121944774Y-95081063D01*
X121775256Y-94967795D01*
X121586898Y-94889774D01*
X121386939Y-94850000D01*
X121183061Y-94850000D01*
X120983102Y-94889774D01*
X120794744Y-94967795D01*
X120775000Y-94980987D01*
X120775000Y-94929801D01*
X121324802Y-94380000D01*
X121386939Y-94380000D01*
X121586898Y-94340226D01*
X121775256Y-94262205D01*
X121944774Y-94148937D01*
X122088937Y-94004774D01*
X122202205Y-93835256D01*
X122280226Y-93646898D01*
X122320000Y-93446939D01*
X122320000Y-93243061D01*
X122280226Y-93043102D01*
X122202205Y-92854744D01*
X122088937Y-92685226D01*
X121944774Y-92541063D01*
X121775256Y-92427795D01*
X121586898Y-92349774D01*
X121386939Y-92310000D01*
X121183061Y-92310000D01*
X120983102Y-92349774D01*
X120794744Y-92427795D01*
X120625226Y-92541063D01*
X120481063Y-92685226D01*
X120367795Y-92854744D01*
X120289774Y-93043102D01*
X120250000Y-93243061D01*
X120250000Y-93305198D01*
X119762934Y-93792265D01*
X119740226Y-93678102D01*
X119662205Y-93489744D01*
X119548937Y-93320226D01*
X119404774Y-93176063D01*
X119235256Y-93062795D01*
X119046898Y-92984774D01*
X118846939Y-92945000D01*
X118670903Y-92945000D01*
X118769774Y-92878937D01*
X118913937Y-92734774D01*
X119027205Y-92565256D01*
X119105226Y-92376898D01*
X119145000Y-92176939D01*
X119145000Y-91973061D01*
X119105226Y-91773102D01*
X119027205Y-91584744D01*
X118913937Y-91415226D01*
X118895000Y-91396289D01*
X118895000Y-90471876D01*
X128445874Y-90471876D01*
X128525790Y-90679529D01*
X128644682Y-90867601D01*
X128797980Y-91028865D01*
X128979794Y-91157123D01*
X129183136Y-91247446D01*
X129238126Y-91264119D01*
X129413000Y-91137954D01*
X129413000Y-90297000D01*
X128570871Y-90297000D01*
X128445874Y-90471876D01*
X118895000Y-90471876D01*
X118895000Y-85763552D01*
X118898797Y-85724999D01*
X118895000Y-85686446D01*
X118895000Y-85686439D01*
X118883641Y-85571113D01*
X118838754Y-85423140D01*
X118765862Y-85286767D01*
X118709981Y-85218677D01*
X118692345Y-85197187D01*
X118692342Y-85197184D01*
X118667764Y-85167236D01*
X118637817Y-85142659D01*
X117625000Y-84129843D01*
X117625000Y-80407431D01*
X122183571Y-84966003D01*
X122207369Y-84995001D01*
X122236367Y-85018799D01*
X122323094Y-85089974D01*
X122455123Y-85160546D01*
X122598384Y-85204003D01*
X122747370Y-85218677D01*
X122784703Y-85215000D01*
X130106289Y-85215000D01*
X130150226Y-85258937D01*
X130319744Y-85372205D01*
X130508102Y-85450226D01*
X130708061Y-85490000D01*
X130734843Y-85490000D01*
X132724842Y-87480000D01*
X129583711Y-87480000D01*
X129564774Y-87461063D01*
X129395256Y-87347795D01*
X129206898Y-87269774D01*
X129006939Y-87230000D01*
X128803061Y-87230000D01*
X128603102Y-87269774D01*
X128414744Y-87347795D01*
X128245226Y-87461063D01*
X128101063Y-87605226D01*
X127987795Y-87774744D01*
X127909774Y-87963102D01*
X127870000Y-88163061D01*
X127870000Y-88366939D01*
X127909774Y-88566898D01*
X127987795Y-88755256D01*
X128101063Y-88924774D01*
X128245226Y-89068937D01*
X128414744Y-89182205D01*
X128603102Y-89260226D01*
X128803061Y-89300000D01*
X128813765Y-89300000D01*
X128797980Y-89311135D01*
X128644682Y-89472399D01*
X128525790Y-89660471D01*
X128445874Y-89868124D01*
X128570871Y-90043000D01*
X129413000Y-90043000D01*
X129413000Y-90023000D01*
X129667000Y-90023000D01*
X129667000Y-90043000D01*
X129671928Y-90043000D01*
X129671928Y-90297000D01*
X129667000Y-90297000D01*
X129667000Y-91137954D01*
X129841874Y-91264119D01*
X129896864Y-91247446D01*
X129976820Y-91211930D01*
X130065820Y-91259502D01*
X130185518Y-91295812D01*
X130310000Y-91308072D01*
X131310000Y-91308072D01*
X131434482Y-91295812D01*
X131554180Y-91259502D01*
X131664494Y-91200537D01*
X131761185Y-91121185D01*
X131840537Y-91024494D01*
X131899502Y-90914180D01*
X131935812Y-90794482D01*
X131948072Y-90670000D01*
X131948072Y-89670000D01*
X131935812Y-89545518D01*
X131899502Y-89425820D01*
X131840537Y-89315506D01*
X131761185Y-89218815D01*
X131664494Y-89139463D01*
X131554180Y-89080498D01*
X131453642Y-89050000D01*
X142549843Y-89050000D01*
X144304843Y-90805000D01*
X141077185Y-94032658D01*
X141047237Y-94057236D01*
X141022659Y-94087184D01*
X141022655Y-94087188D01*
X140989690Y-94127356D01*
X140949139Y-94176767D01*
X140915933Y-94238892D01*
X140876246Y-94313141D01*
X140831359Y-94461114D01*
X140816203Y-94615000D01*
X140820001Y-94653563D01*
X140820000Y-96476289D01*
X140801063Y-96495226D01*
X140687795Y-96664744D01*
X140609774Y-96853102D01*
X140570000Y-97053061D01*
X140570000Y-97256939D01*
X140609774Y-97456898D01*
X140687795Y-97645256D01*
X140801063Y-97814774D01*
X140820000Y-97833711D01*
X140820001Y-100004841D01*
X136632190Y-104192653D01*
X136602236Y-104217236D01*
X136504138Y-104336768D01*
X136431246Y-104473141D01*
X136386359Y-104621114D01*
X136375000Y-104736440D01*
X136375000Y-104736447D01*
X136371203Y-104775000D01*
X136375000Y-104813553D01*
X136375000Y-105371439D01*
X136371202Y-105410000D01*
X136375000Y-105448561D01*
X136375000Y-105707462D01*
X136358899Y-105716068D01*
X136140392Y-105895393D01*
X135961068Y-106113900D01*
X135827818Y-106363193D01*
X135745764Y-106633692D01*
X135725000Y-106844509D01*
X135725000Y-107785492D01*
X135745764Y-107996309D01*
X135827818Y-108266808D01*
X135961068Y-108516101D01*
X136140393Y-108734608D01*
X136358900Y-108913932D01*
X136608193Y-109047182D01*
X136759236Y-109093000D01*
X132080000Y-109093000D01*
X132055224Y-109095440D01*
X132031399Y-109102667D01*
X132009443Y-109114403D01*
X131990197Y-109130197D01*
X131974403Y-109149443D01*
X131962667Y-109171399D01*
X131955440Y-109195224D01*
X131953000Y-109220000D01*
X131953000Y-129275000D01*
X113035666Y-129275000D01*
X113523489Y-128787177D01*
X113921295Y-128191818D01*
X114195309Y-127530290D01*
X114335000Y-126828016D01*
X114335000Y-126721891D01*
X117303519Y-126721891D01*
X117400843Y-126996252D01*
X117549822Y-127246355D01*
X117744731Y-127462588D01*
X117978080Y-127636641D01*
X118240901Y-127761825D01*
X118388110Y-127806476D01*
X118618000Y-127685155D01*
X118618000Y-126492000D01*
X117424186Y-126492000D01*
X117303519Y-126721891D01*
X114335000Y-126721891D01*
X114335000Y-126111984D01*
X114314338Y-126008109D01*
X117303519Y-126008109D01*
X117424186Y-126238000D01*
X118618000Y-126238000D01*
X118618000Y-125044845D01*
X118388110Y-124923524D01*
X118240901Y-124968175D01*
X117978080Y-125093359D01*
X117744731Y-125267412D01*
X117549822Y-125483645D01*
X117400843Y-125733748D01*
X117303519Y-126008109D01*
X114314338Y-126008109D01*
X114195309Y-125409710D01*
X113921295Y-124748182D01*
X113523489Y-124152823D01*
X113017177Y-123646511D01*
X112421818Y-123248705D01*
X111760290Y-122974691D01*
X111058016Y-122835000D01*
X110341984Y-122835000D01*
X109639710Y-122974691D01*
X108978182Y-123248705D01*
X108382823Y-123646511D01*
X107895000Y-124134334D01*
X107895000Y-119535000D01*
X110426928Y-119535000D01*
X110439188Y-119659482D01*
X110475498Y-119779180D01*
X110534463Y-119889494D01*
X110613815Y-119986185D01*
X110710506Y-120065537D01*
X110820820Y-120124502D01*
X110940518Y-120160812D01*
X111065000Y-120173072D01*
X111379250Y-120170000D01*
X111538000Y-120011250D01*
X111538000Y-119062000D01*
X110588750Y-119062000D01*
X110430000Y-119220750D01*
X110426928Y-119535000D01*
X107895000Y-119535000D01*
X107895000Y-115784764D01*
X110994841Y-115784764D01*
X111026629Y-115935000D01*
X110994841Y-116085236D01*
X111665000Y-116755395D01*
X112335159Y-116085236D01*
X112303371Y-115935000D01*
X112335159Y-115784764D01*
X111665000Y-115114605D01*
X110994841Y-115784764D01*
X107895000Y-115784764D01*
X107895000Y-115013438D01*
X110426505Y-115013438D01*
X110465605Y-115253549D01*
X110550798Y-115481418D01*
X110591652Y-115557852D01*
X110815236Y-115605159D01*
X111485395Y-114935000D01*
X110815236Y-114264841D01*
X110591652Y-114312148D01*
X110490763Y-114533516D01*
X110435000Y-114770313D01*
X110426505Y-115013438D01*
X107895000Y-115013438D01*
X107895000Y-113784764D01*
X110994841Y-113784764D01*
X111026629Y-113935000D01*
X110994841Y-114085236D01*
X111665000Y-114755395D01*
X112335159Y-114085236D01*
X112303371Y-113935000D01*
X112335159Y-113784764D01*
X111665000Y-113114605D01*
X110994841Y-113784764D01*
X107895000Y-113784764D01*
X107895000Y-113013438D01*
X110426505Y-113013438D01*
X110465605Y-113253549D01*
X110550798Y-113481418D01*
X110591652Y-113557852D01*
X110815236Y-113605159D01*
X111485395Y-112935000D01*
X110815236Y-112264841D01*
X110591652Y-112312148D01*
X110490763Y-112533516D01*
X110435000Y-112770313D01*
X110426505Y-113013438D01*
X107895000Y-113013438D01*
X107895000Y-104295000D01*
X110426928Y-104295000D01*
X110439188Y-104419482D01*
X110475498Y-104539180D01*
X110534463Y-104649494D01*
X110613815Y-104746185D01*
X110710506Y-104825537D01*
X110820820Y-104884502D01*
X110940518Y-104920812D01*
X111065000Y-104933072D01*
X111379250Y-104930000D01*
X111538000Y-104771250D01*
X111538000Y-103822000D01*
X110588750Y-103822000D01*
X110430000Y-103980750D01*
X110426928Y-104295000D01*
X107895000Y-104295000D01*
X107895000Y-100544764D01*
X110994841Y-100544764D01*
X111026629Y-100695000D01*
X110994841Y-100845236D01*
X111665000Y-101515395D01*
X112335159Y-100845236D01*
X112303371Y-100695000D01*
X112335159Y-100544764D01*
X111665000Y-99874605D01*
X110994841Y-100544764D01*
X107895000Y-100544764D01*
X107895000Y-99773438D01*
X110426505Y-99773438D01*
X110465605Y-100013549D01*
X110550798Y-100241418D01*
X110591652Y-100317852D01*
X110815236Y-100365159D01*
X111485395Y-99695000D01*
X110815236Y-99024841D01*
X110591652Y-99072148D01*
X110490763Y-99293516D01*
X110435000Y-99530313D01*
X110426505Y-99773438D01*
X107895000Y-99773438D01*
X107895000Y-98544764D01*
X110994841Y-98544764D01*
X111026629Y-98695000D01*
X110994841Y-98845236D01*
X111665000Y-99515395D01*
X112335159Y-98845236D01*
X112303371Y-98695000D01*
X112335159Y-98544764D01*
X111665000Y-97874605D01*
X110994841Y-98544764D01*
X107895000Y-98544764D01*
X107895000Y-97773438D01*
X110426505Y-97773438D01*
X110465605Y-98013549D01*
X110550798Y-98241418D01*
X110591652Y-98317852D01*
X110815236Y-98365159D01*
X111485395Y-97695000D01*
X110815236Y-97024841D01*
X110591652Y-97072148D01*
X110490763Y-97293516D01*
X110435000Y-97530313D01*
X110426505Y-97773438D01*
X107895000Y-97773438D01*
X107895000Y-79805666D01*
X108382823Y-80293489D01*
X108978182Y-80691295D01*
X109639710Y-80965309D01*
X110341984Y-81105000D01*
X111058016Y-81105000D01*
X111760290Y-80965309D01*
X112421818Y-80691295D01*
X113017177Y-80293489D01*
X113523489Y-79787177D01*
X113921295Y-79191818D01*
X114179988Y-78567279D01*
X114173000Y-78602408D01*
G37*
X114173000Y-78602408D02*
X114173000Y-78877592D01*
X114226686Y-79147490D01*
X114331995Y-79401727D01*
X114484880Y-79630535D01*
X114679465Y-79825120D01*
X114908273Y-79978005D01*
X115162510Y-80083314D01*
X115432408Y-80137000D01*
X115707592Y-80137000D01*
X115977490Y-80083314D01*
X116055000Y-80051208D01*
X116055001Y-84416437D01*
X116051203Y-84455000D01*
X116066359Y-84608886D01*
X116111246Y-84756859D01*
X116111247Y-84756860D01*
X116184139Y-84893233D01*
X116206979Y-84921063D01*
X116257655Y-84982812D01*
X116257659Y-84982816D01*
X116282237Y-85012764D01*
X116312185Y-85037342D01*
X117325000Y-86050158D01*
X117325001Y-91396288D01*
X117306063Y-91415226D01*
X117192795Y-91584744D01*
X117114774Y-91773102D01*
X117075000Y-91973061D01*
X117075000Y-91999843D01*
X116947190Y-92127653D01*
X116917236Y-92152236D01*
X116819138Y-92271768D01*
X116746246Y-92408141D01*
X116701359Y-92556114D01*
X116690000Y-92671440D01*
X116690000Y-92671447D01*
X116686203Y-92710000D01*
X116690000Y-92748553D01*
X116690000Y-93195000D01*
X113418552Y-93195000D01*
X113379999Y-93191203D01*
X113341446Y-93195000D01*
X113341439Y-93195000D01*
X113240490Y-93204943D01*
X113226112Y-93206359D01*
X113193266Y-93216323D01*
X113078140Y-93251246D01*
X112941767Y-93324138D01*
X112890928Y-93365861D01*
X112852187Y-93397655D01*
X112852184Y-93397658D01*
X112822236Y-93422236D01*
X112797658Y-93452184D01*
X111789311Y-94460532D01*
X111786637Y-94460000D01*
X111543363Y-94460000D01*
X111304764Y-94507460D01*
X111080008Y-94600557D01*
X110877733Y-94735713D01*
X110705713Y-94907733D01*
X110570557Y-95110008D01*
X110477460Y-95334764D01*
X110430000Y-95573363D01*
X110430000Y-95816637D01*
X110477460Y-96055236D01*
X110570557Y-96279992D01*
X110705713Y-96482267D01*
X110877733Y-96654287D01*
X111015733Y-96746496D01*
X110994841Y-96845236D01*
X111665000Y-97515395D01*
X112335159Y-96845236D01*
X112314267Y-96746496D01*
X112452267Y-96654287D01*
X112624287Y-96482267D01*
X112665000Y-96421336D01*
X112705713Y-96482267D01*
X112877733Y-96654287D01*
X112938664Y-96695000D01*
X112877733Y-96735713D01*
X112705713Y-96907733D01*
X112613504Y-97045733D01*
X112514764Y-97024841D01*
X111844605Y-97695000D01*
X112514764Y-98365159D01*
X112613504Y-98344267D01*
X112705713Y-98482267D01*
X112877733Y-98654287D01*
X112938664Y-98695000D01*
X112877733Y-98735713D01*
X112705713Y-98907733D01*
X112613504Y-99045733D01*
X112514764Y-99024841D01*
X111844605Y-99695000D01*
X112514764Y-100365159D01*
X112613504Y-100344267D01*
X112705713Y-100482267D01*
X112877733Y-100654287D01*
X112938664Y-100695000D01*
X112877733Y-100735713D01*
X112705713Y-100907733D01*
X112613504Y-101045733D01*
X112514764Y-101024841D01*
X111844605Y-101695000D01*
X111858748Y-101709143D01*
X111679143Y-101888748D01*
X111665000Y-101874605D01*
X111650858Y-101888748D01*
X111471253Y-101709143D01*
X111485395Y-101695000D01*
X110815236Y-101024841D01*
X110591652Y-101072148D01*
X110490763Y-101293516D01*
X110435000Y-101530313D01*
X110426505Y-101773438D01*
X110465605Y-102013549D01*
X110550798Y-102241418D01*
X110591652Y-102317852D01*
X110815234Y-102365158D01*
X110698128Y-102482264D01*
X110756006Y-102540142D01*
X110710506Y-102564463D01*
X110613815Y-102643815D01*
X110534463Y-102740506D01*
X110475498Y-102850820D01*
X110439188Y-102970518D01*
X110426928Y-103095000D01*
X110430000Y-103409250D01*
X110588750Y-103568000D01*
X111538000Y-103568000D01*
X111538000Y-103548000D01*
X111792000Y-103548000D01*
X111792000Y-103568000D01*
X111812000Y-103568000D01*
X111812000Y-103822000D01*
X111792000Y-103822000D01*
X111792000Y-104771250D01*
X111950750Y-104930000D01*
X112265000Y-104933072D01*
X112389482Y-104920812D01*
X112509180Y-104884502D01*
X112619494Y-104825537D01*
X112716185Y-104746185D01*
X112795537Y-104649494D01*
X112822499Y-104599053D01*
X112877733Y-104654287D01*
X113080008Y-104789443D01*
X113304764Y-104882540D01*
X113543363Y-104930000D01*
X113786637Y-104930000D01*
X114025236Y-104882540D01*
X114249992Y-104789443D01*
X114452267Y-104654287D01*
X114624287Y-104482267D01*
X114759443Y-104279992D01*
X114852540Y-104055236D01*
X114900000Y-103816637D01*
X114900000Y-103573363D01*
X114852540Y-103334764D01*
X114759443Y-103110008D01*
X114624287Y-102907733D01*
X114452267Y-102735713D01*
X114391336Y-102695000D01*
X114452267Y-102654287D01*
X114624287Y-102482267D01*
X114759443Y-102279992D01*
X114852540Y-102055236D01*
X114900000Y-101816637D01*
X114900000Y-101573363D01*
X114852540Y-101334764D01*
X114759443Y-101110008D01*
X114624287Y-100907733D01*
X114452267Y-100735713D01*
X114391336Y-100695000D01*
X114452267Y-100654287D01*
X114624287Y-100482267D01*
X114759443Y-100279992D01*
X114852540Y-100055236D01*
X114900000Y-99816637D01*
X114900000Y-99573363D01*
X114852540Y-99334764D01*
X114759443Y-99110008D01*
X114624287Y-98907733D01*
X114452267Y-98735713D01*
X114391336Y-98695000D01*
X114452267Y-98654287D01*
X114624287Y-98482267D01*
X114759443Y-98279992D01*
X114852540Y-98055236D01*
X114900000Y-97816637D01*
X114900000Y-97573363D01*
X114852540Y-97334764D01*
X114759443Y-97110008D01*
X114624287Y-96907733D01*
X114452267Y-96735713D01*
X114391336Y-96695000D01*
X114452267Y-96654287D01*
X114624287Y-96482267D01*
X114759443Y-96279992D01*
X114852540Y-96055236D01*
X114900000Y-95816637D01*
X114900000Y-95573363D01*
X114852540Y-95334764D01*
X114759443Y-95110008D01*
X114624287Y-94907733D01*
X114481554Y-94765000D01*
X116690000Y-94765000D01*
X116690001Y-98386437D01*
X116686203Y-98425000D01*
X116701359Y-98578886D01*
X116746246Y-98726859D01*
X116779698Y-98789443D01*
X116819139Y-98863233D01*
X116854403Y-98906202D01*
X116892655Y-98952812D01*
X116892659Y-98952816D01*
X116917237Y-98982764D01*
X116947185Y-99007342D01*
X120500000Y-102560157D01*
X120500001Y-109070000D01*
X112783556Y-109070000D01*
X112745000Y-109066203D01*
X112706444Y-109070000D01*
X112706439Y-109070000D01*
X112666026Y-109073980D01*
X112591113Y-109081358D01*
X112443140Y-109126246D01*
X112306767Y-109199138D01*
X112187236Y-109297236D01*
X112162653Y-109327190D01*
X111789311Y-109700532D01*
X111786637Y-109700000D01*
X111543363Y-109700000D01*
X111304764Y-109747460D01*
X111080008Y-109840557D01*
X110877733Y-109975713D01*
X110705713Y-110147733D01*
X110570557Y-110350008D01*
X110477460Y-110574764D01*
X110430000Y-110813363D01*
X110430000Y-111056637D01*
X110477460Y-111295236D01*
X110570557Y-111519992D01*
X110705713Y-111722267D01*
X110877733Y-111894287D01*
X111015733Y-111986496D01*
X110994841Y-112085236D01*
X111665000Y-112755395D01*
X112335159Y-112085236D01*
X112314267Y-111986496D01*
X112452267Y-111894287D01*
X112624287Y-111722267D01*
X112665000Y-111661336D01*
X112705713Y-111722267D01*
X112877733Y-111894287D01*
X112938664Y-111935000D01*
X112877733Y-111975713D01*
X112705713Y-112147733D01*
X112613504Y-112285733D01*
X112514764Y-112264841D01*
X111844605Y-112935000D01*
X112514764Y-113605159D01*
X112613504Y-113584267D01*
X112705713Y-113722267D01*
X112877733Y-113894287D01*
X112938664Y-113935000D01*
X112877733Y-113975713D01*
X112705713Y-114147733D01*
X112613504Y-114285733D01*
X112514764Y-114264841D01*
X111844605Y-114935000D01*
X112514764Y-115605159D01*
X112613504Y-115584267D01*
X112705713Y-115722267D01*
X112877733Y-115894287D01*
X112938664Y-115935000D01*
X112877733Y-115975713D01*
X112705713Y-116147733D01*
X112613504Y-116285733D01*
X112514764Y-116264841D01*
X111844605Y-116935000D01*
X111858748Y-116949143D01*
X111679143Y-117128748D01*
X111665000Y-117114605D01*
X111650858Y-117128748D01*
X111471253Y-116949143D01*
X111485395Y-116935000D01*
X110815236Y-116264841D01*
X110591652Y-116312148D01*
X110490763Y-116533516D01*
X110435000Y-116770313D01*
X110426505Y-117013438D01*
X110465605Y-117253549D01*
X110550798Y-117481418D01*
X110591652Y-117557852D01*
X110815234Y-117605158D01*
X110698128Y-117722264D01*
X110756006Y-117780142D01*
X110710506Y-117804463D01*
X110613815Y-117883815D01*
X110534463Y-117980506D01*
X110475498Y-118090820D01*
X110439188Y-118210518D01*
X110426928Y-118335000D01*
X110430000Y-118649250D01*
X110588750Y-118808000D01*
X111538000Y-118808000D01*
X111538000Y-118788000D01*
X111792000Y-118788000D01*
X111792000Y-118808000D01*
X111812000Y-118808000D01*
X111812000Y-119062000D01*
X111792000Y-119062000D01*
X111792000Y-120011250D01*
X111950750Y-120170000D01*
X112265000Y-120173072D01*
X112389482Y-120160812D01*
X112509180Y-120124502D01*
X112619494Y-120065537D01*
X112716185Y-119986185D01*
X112795537Y-119889494D01*
X112822499Y-119839053D01*
X112877733Y-119894287D01*
X113080008Y-120029443D01*
X113304764Y-120122540D01*
X113543363Y-120170000D01*
X113786637Y-120170000D01*
X114025236Y-120122540D01*
X114249992Y-120029443D01*
X114452267Y-119894287D01*
X114624287Y-119722267D01*
X114759443Y-119519992D01*
X114852540Y-119295236D01*
X114900000Y-119056637D01*
X114900000Y-118813363D01*
X114852540Y-118574764D01*
X114759443Y-118350008D01*
X114624287Y-118147733D01*
X114452267Y-117975713D01*
X114391336Y-117935000D01*
X114452267Y-117894287D01*
X114624287Y-117722267D01*
X114759443Y-117519992D01*
X114852540Y-117295236D01*
X114900000Y-117056637D01*
X114900000Y-116813363D01*
X114852540Y-116574764D01*
X114759443Y-116350008D01*
X114624287Y-116147733D01*
X114452267Y-115975713D01*
X114391336Y-115935000D01*
X114452267Y-115894287D01*
X114624287Y-115722267D01*
X114759443Y-115519992D01*
X114852540Y-115295236D01*
X114900000Y-115056637D01*
X114900000Y-114813363D01*
X114852540Y-114574764D01*
X114759443Y-114350008D01*
X114624287Y-114147733D01*
X114452267Y-113975713D01*
X114391336Y-113935000D01*
X114452267Y-113894287D01*
X114624287Y-113722267D01*
X114759443Y-113519992D01*
X114852540Y-113295236D01*
X114900000Y-113056637D01*
X114900000Y-112813363D01*
X114852540Y-112574764D01*
X114759443Y-112350008D01*
X114624287Y-112147733D01*
X114452267Y-111975713D01*
X114391336Y-111935000D01*
X114452267Y-111894287D01*
X114624287Y-111722267D01*
X114759443Y-111519992D01*
X114852540Y-111295236D01*
X114900000Y-111056637D01*
X114900000Y-110813363D01*
X114865516Y-110640000D01*
X120365618Y-110640000D01*
X120289774Y-110823102D01*
X120250000Y-111023061D01*
X120250000Y-111226939D01*
X120289774Y-111426898D01*
X120367795Y-111615256D01*
X120481063Y-111784774D01*
X120500000Y-111803711D01*
X120500001Y-122229841D01*
X119939843Y-122790000D01*
X119913061Y-122790000D01*
X119713102Y-122829774D01*
X119524744Y-122907795D01*
X119355226Y-123021063D01*
X119211063Y-123165226D01*
X119097795Y-123334744D01*
X119019774Y-123523102D01*
X118980000Y-123723061D01*
X118980000Y-123926939D01*
X119019774Y-124126898D01*
X119097795Y-124315256D01*
X119211063Y-124484774D01*
X119355226Y-124628937D01*
X119524744Y-124742205D01*
X119713102Y-124820226D01*
X119913061Y-124860000D01*
X120116939Y-124860000D01*
X120316898Y-124820226D01*
X120500001Y-124744382D01*
X120500001Y-125103526D01*
X120338368Y-125211525D01*
X120131525Y-125418368D01*
X120009805Y-125600534D01*
X119940178Y-125483645D01*
X119745269Y-125267412D01*
X119511920Y-125093359D01*
X119249099Y-124968175D01*
X119101890Y-124923524D01*
X118872000Y-125044845D01*
X118872000Y-126238000D01*
X118892000Y-126238000D01*
X118892000Y-126492000D01*
X118872000Y-126492000D01*
X118872000Y-127685155D01*
X119101890Y-127806476D01*
X119249099Y-127761825D01*
X119511920Y-127636641D01*
X119745269Y-127462588D01*
X119940178Y-127246355D01*
X120009805Y-127129466D01*
X120131525Y-127311632D01*
X120338368Y-127518475D01*
X120581589Y-127680990D01*
X120851842Y-127792932D01*
X121138740Y-127850000D01*
X121431260Y-127850000D01*
X121718158Y-127792932D01*
X121988411Y-127680990D01*
X122231632Y-127518475D01*
X122438475Y-127311632D01*
X122555000Y-127137240D01*
X122671525Y-127311632D01*
X122878368Y-127518475D01*
X123121589Y-127680990D01*
X123391842Y-127792932D01*
X123678740Y-127850000D01*
X123971260Y-127850000D01*
X124258158Y-127792932D01*
X124528411Y-127680990D01*
X124771632Y-127518475D01*
X124903487Y-127386620D01*
X124925498Y-127459180D01*
X124984463Y-127569494D01*
X125063815Y-127666185D01*
X125160506Y-127745537D01*
X125270820Y-127804502D01*
X125390518Y-127840812D01*
X125515000Y-127853072D01*
X127215000Y-127853072D01*
X127339482Y-127840812D01*
X127459180Y-127804502D01*
X127569494Y-127745537D01*
X127666185Y-127666185D01*
X127745537Y-127569494D01*
X127804502Y-127459180D01*
X127840812Y-127339482D01*
X127853072Y-127215000D01*
X127853072Y-125515000D01*
X127840812Y-125390518D01*
X127804502Y-125270820D01*
X127745537Y-125160506D01*
X127666185Y-125063815D01*
X127569494Y-124984463D01*
X127459180Y-124925498D01*
X127339482Y-124889188D01*
X127215000Y-124876928D01*
X127150000Y-124876928D01*
X127150000Y-123515157D01*
X128345157Y-122320000D01*
X128371939Y-122320000D01*
X128571898Y-122280226D01*
X128760256Y-122202205D01*
X128929774Y-122088937D01*
X129073937Y-121944774D01*
X129187205Y-121775256D01*
X129265226Y-121586898D01*
X129305000Y-121386939D01*
X129305000Y-121183061D01*
X129265226Y-120983102D01*
X129187205Y-120794744D01*
X129073937Y-120625226D01*
X129055000Y-120606289D01*
X129055000Y-112433552D01*
X129058797Y-112394999D01*
X129055000Y-112356446D01*
X129055000Y-112356439D01*
X129043641Y-112241113D01*
X128998754Y-112093140D01*
X128925862Y-111956767D01*
X128827764Y-111837236D01*
X128797815Y-111812658D01*
X128035000Y-111049843D01*
X128035000Y-111023061D01*
X127995226Y-110823102D01*
X127917205Y-110634744D01*
X127803937Y-110465226D01*
X127785000Y-110446289D01*
X127785000Y-107640157D01*
X128345158Y-107080000D01*
X128371939Y-107080000D01*
X128571898Y-107040226D01*
X128760256Y-106962205D01*
X128929774Y-106848937D01*
X129073937Y-106704774D01*
X129187205Y-106535256D01*
X129265226Y-106346898D01*
X129305000Y-106146939D01*
X129305000Y-105943061D01*
X129265226Y-105743102D01*
X129187205Y-105554744D01*
X129073937Y-105385226D01*
X129055000Y-105366289D01*
X129055000Y-99733552D01*
X129058797Y-99694999D01*
X129055000Y-99656446D01*
X129055000Y-99656439D01*
X129043641Y-99541113D01*
X128998754Y-99393140D01*
X128925862Y-99256767D01*
X128827764Y-99137236D01*
X128797816Y-99112658D01*
X126130000Y-96444843D01*
X126130000Y-96418061D01*
X126090226Y-96218102D01*
X126012205Y-96029744D01*
X125898937Y-95860226D01*
X125754774Y-95716063D01*
X125585256Y-95602795D01*
X125396898Y-95524774D01*
X125196939Y-95485000D01*
X125170157Y-95485000D01*
X125042347Y-95357190D01*
X125017764Y-95327236D01*
X124898233Y-95229138D01*
X124761860Y-95156246D01*
X124613887Y-95111359D01*
X124498561Y-95100000D01*
X124498553Y-95100000D01*
X124460000Y-95096203D01*
X124421447Y-95100000D01*
X121963711Y-95100000D01*
X121944774Y-95081063D01*
X121775256Y-94967795D01*
X121586898Y-94889774D01*
X121386939Y-94850000D01*
X121183061Y-94850000D01*
X120983102Y-94889774D01*
X120794744Y-94967795D01*
X120775000Y-94980987D01*
X120775000Y-94929801D01*
X121324802Y-94380000D01*
X121386939Y-94380000D01*
X121586898Y-94340226D01*
X121775256Y-94262205D01*
X121944774Y-94148937D01*
X122088937Y-94004774D01*
X122202205Y-93835256D01*
X122280226Y-93646898D01*
X122320000Y-93446939D01*
X122320000Y-93243061D01*
X122280226Y-93043102D01*
X122202205Y-92854744D01*
X122088937Y-92685226D01*
X121944774Y-92541063D01*
X121775256Y-92427795D01*
X121586898Y-92349774D01*
X121386939Y-92310000D01*
X121183061Y-92310000D01*
X120983102Y-92349774D01*
X120794744Y-92427795D01*
X120625226Y-92541063D01*
X120481063Y-92685226D01*
X120367795Y-92854744D01*
X120289774Y-93043102D01*
X120250000Y-93243061D01*
X120250000Y-93305198D01*
X119762934Y-93792265D01*
X119740226Y-93678102D01*
X119662205Y-93489744D01*
X119548937Y-93320226D01*
X119404774Y-93176063D01*
X119235256Y-93062795D01*
X119046898Y-92984774D01*
X118846939Y-92945000D01*
X118670903Y-92945000D01*
X118769774Y-92878937D01*
X118913937Y-92734774D01*
X119027205Y-92565256D01*
X119105226Y-92376898D01*
X119145000Y-92176939D01*
X119145000Y-91973061D01*
X119105226Y-91773102D01*
X119027205Y-91584744D01*
X118913937Y-91415226D01*
X118895000Y-91396289D01*
X118895000Y-90471876D01*
X128445874Y-90471876D01*
X128525790Y-90679529D01*
X128644682Y-90867601D01*
X128797980Y-91028865D01*
X128979794Y-91157123D01*
X129183136Y-91247446D01*
X129238126Y-91264119D01*
X129413000Y-91137954D01*
X129413000Y-90297000D01*
X128570871Y-90297000D01*
X128445874Y-90471876D01*
X118895000Y-90471876D01*
X118895000Y-85763552D01*
X118898797Y-85724999D01*
X118895000Y-85686446D01*
X118895000Y-85686439D01*
X118883641Y-85571113D01*
X118838754Y-85423140D01*
X118765862Y-85286767D01*
X118709981Y-85218677D01*
X118692345Y-85197187D01*
X118692342Y-85197184D01*
X118667764Y-85167236D01*
X118637817Y-85142659D01*
X117625000Y-84129843D01*
X117625000Y-80407431D01*
X122183571Y-84966003D01*
X122207369Y-84995001D01*
X122236367Y-85018799D01*
X122323094Y-85089974D01*
X122455123Y-85160546D01*
X122598384Y-85204003D01*
X122747370Y-85218677D01*
X122784703Y-85215000D01*
X130106289Y-85215000D01*
X130150226Y-85258937D01*
X130319744Y-85372205D01*
X130508102Y-85450226D01*
X130708061Y-85490000D01*
X130734843Y-85490000D01*
X132724842Y-87480000D01*
X129583711Y-87480000D01*
X129564774Y-87461063D01*
X129395256Y-87347795D01*
X129206898Y-87269774D01*
X129006939Y-87230000D01*
X128803061Y-87230000D01*
X128603102Y-87269774D01*
X128414744Y-87347795D01*
X128245226Y-87461063D01*
X128101063Y-87605226D01*
X127987795Y-87774744D01*
X127909774Y-87963102D01*
X127870000Y-88163061D01*
X127870000Y-88366939D01*
X127909774Y-88566898D01*
X127987795Y-88755256D01*
X128101063Y-88924774D01*
X128245226Y-89068937D01*
X128414744Y-89182205D01*
X128603102Y-89260226D01*
X128803061Y-89300000D01*
X128813765Y-89300000D01*
X128797980Y-89311135D01*
X128644682Y-89472399D01*
X128525790Y-89660471D01*
X128445874Y-89868124D01*
X128570871Y-90043000D01*
X129413000Y-90043000D01*
X129413000Y-90023000D01*
X129667000Y-90023000D01*
X129667000Y-90043000D01*
X129671928Y-90043000D01*
X129671928Y-90297000D01*
X129667000Y-90297000D01*
X129667000Y-91137954D01*
X129841874Y-91264119D01*
X129896864Y-91247446D01*
X129976820Y-91211930D01*
X130065820Y-91259502D01*
X130185518Y-91295812D01*
X130310000Y-91308072D01*
X131310000Y-91308072D01*
X131434482Y-91295812D01*
X131554180Y-91259502D01*
X131664494Y-91200537D01*
X131761185Y-91121185D01*
X131840537Y-91024494D01*
X131899502Y-90914180D01*
X131935812Y-90794482D01*
X131948072Y-90670000D01*
X131948072Y-89670000D01*
X131935812Y-89545518D01*
X131899502Y-89425820D01*
X131840537Y-89315506D01*
X131761185Y-89218815D01*
X131664494Y-89139463D01*
X131554180Y-89080498D01*
X131453642Y-89050000D01*
X142549843Y-89050000D01*
X144304843Y-90805000D01*
X141077185Y-94032658D01*
X141047237Y-94057236D01*
X141022659Y-94087184D01*
X141022655Y-94087188D01*
X140989690Y-94127356D01*
X140949139Y-94176767D01*
X140915933Y-94238892D01*
X140876246Y-94313141D01*
X140831359Y-94461114D01*
X140816203Y-94615000D01*
X140820001Y-94653563D01*
X140820000Y-96476289D01*
X140801063Y-96495226D01*
X140687795Y-96664744D01*
X140609774Y-96853102D01*
X140570000Y-97053061D01*
X140570000Y-97256939D01*
X140609774Y-97456898D01*
X140687795Y-97645256D01*
X140801063Y-97814774D01*
X140820000Y-97833711D01*
X140820001Y-100004841D01*
X136632190Y-104192653D01*
X136602236Y-104217236D01*
X136504138Y-104336768D01*
X136431246Y-104473141D01*
X136386359Y-104621114D01*
X136375000Y-104736440D01*
X136375000Y-104736447D01*
X136371203Y-104775000D01*
X136375000Y-104813553D01*
X136375000Y-105371439D01*
X136371202Y-105410000D01*
X136375000Y-105448561D01*
X136375000Y-105707462D01*
X136358899Y-105716068D01*
X136140392Y-105895393D01*
X135961068Y-106113900D01*
X135827818Y-106363193D01*
X135745764Y-106633692D01*
X135725000Y-106844509D01*
X135725000Y-107785492D01*
X135745764Y-107996309D01*
X135827818Y-108266808D01*
X135961068Y-108516101D01*
X136140393Y-108734608D01*
X136358900Y-108913932D01*
X136608193Y-109047182D01*
X136759236Y-109093000D01*
X132080000Y-109093000D01*
X132055224Y-109095440D01*
X132031399Y-109102667D01*
X132009443Y-109114403D01*
X131990197Y-109130197D01*
X131974403Y-109149443D01*
X131962667Y-109171399D01*
X131955440Y-109195224D01*
X131953000Y-109220000D01*
X131953000Y-129275000D01*
X113035666Y-129275000D01*
X113523489Y-128787177D01*
X113921295Y-128191818D01*
X114195309Y-127530290D01*
X114335000Y-126828016D01*
X114335000Y-126721891D01*
X117303519Y-126721891D01*
X117400843Y-126996252D01*
X117549822Y-127246355D01*
X117744731Y-127462588D01*
X117978080Y-127636641D01*
X118240901Y-127761825D01*
X118388110Y-127806476D01*
X118618000Y-127685155D01*
X118618000Y-126492000D01*
X117424186Y-126492000D01*
X117303519Y-126721891D01*
X114335000Y-126721891D01*
X114335000Y-126111984D01*
X114314338Y-126008109D01*
X117303519Y-126008109D01*
X117424186Y-126238000D01*
X118618000Y-126238000D01*
X118618000Y-125044845D01*
X118388110Y-124923524D01*
X118240901Y-124968175D01*
X117978080Y-125093359D01*
X117744731Y-125267412D01*
X117549822Y-125483645D01*
X117400843Y-125733748D01*
X117303519Y-126008109D01*
X114314338Y-126008109D01*
X114195309Y-125409710D01*
X113921295Y-124748182D01*
X113523489Y-124152823D01*
X113017177Y-123646511D01*
X112421818Y-123248705D01*
X111760290Y-122974691D01*
X111058016Y-122835000D01*
X110341984Y-122835000D01*
X109639710Y-122974691D01*
X108978182Y-123248705D01*
X108382823Y-123646511D01*
X107895000Y-124134334D01*
X107895000Y-119535000D01*
X110426928Y-119535000D01*
X110439188Y-119659482D01*
X110475498Y-119779180D01*
X110534463Y-119889494D01*
X110613815Y-119986185D01*
X110710506Y-120065537D01*
X110820820Y-120124502D01*
X110940518Y-120160812D01*
X111065000Y-120173072D01*
X111379250Y-120170000D01*
X111538000Y-120011250D01*
X111538000Y-119062000D01*
X110588750Y-119062000D01*
X110430000Y-119220750D01*
X110426928Y-119535000D01*
X107895000Y-119535000D01*
X107895000Y-115784764D01*
X110994841Y-115784764D01*
X111026629Y-115935000D01*
X110994841Y-116085236D01*
X111665000Y-116755395D01*
X112335159Y-116085236D01*
X112303371Y-115935000D01*
X112335159Y-115784764D01*
X111665000Y-115114605D01*
X110994841Y-115784764D01*
X107895000Y-115784764D01*
X107895000Y-115013438D01*
X110426505Y-115013438D01*
X110465605Y-115253549D01*
X110550798Y-115481418D01*
X110591652Y-115557852D01*
X110815236Y-115605159D01*
X111485395Y-114935000D01*
X110815236Y-114264841D01*
X110591652Y-114312148D01*
X110490763Y-114533516D01*
X110435000Y-114770313D01*
X110426505Y-115013438D01*
X107895000Y-115013438D01*
X107895000Y-113784764D01*
X110994841Y-113784764D01*
X111026629Y-113935000D01*
X110994841Y-114085236D01*
X111665000Y-114755395D01*
X112335159Y-114085236D01*
X112303371Y-113935000D01*
X112335159Y-113784764D01*
X111665000Y-113114605D01*
X110994841Y-113784764D01*
X107895000Y-113784764D01*
X107895000Y-113013438D01*
X110426505Y-113013438D01*
X110465605Y-113253549D01*
X110550798Y-113481418D01*
X110591652Y-113557852D01*
X110815236Y-113605159D01*
X111485395Y-112935000D01*
X110815236Y-112264841D01*
X110591652Y-112312148D01*
X110490763Y-112533516D01*
X110435000Y-112770313D01*
X110426505Y-113013438D01*
X107895000Y-113013438D01*
X107895000Y-104295000D01*
X110426928Y-104295000D01*
X110439188Y-104419482D01*
X110475498Y-104539180D01*
X110534463Y-104649494D01*
X110613815Y-104746185D01*
X110710506Y-104825537D01*
X110820820Y-104884502D01*
X110940518Y-104920812D01*
X111065000Y-104933072D01*
X111379250Y-104930000D01*
X111538000Y-104771250D01*
X111538000Y-103822000D01*
X110588750Y-103822000D01*
X110430000Y-103980750D01*
X110426928Y-104295000D01*
X107895000Y-104295000D01*
X107895000Y-100544764D01*
X110994841Y-100544764D01*
X111026629Y-100695000D01*
X110994841Y-100845236D01*
X111665000Y-101515395D01*
X112335159Y-100845236D01*
X112303371Y-100695000D01*
X112335159Y-100544764D01*
X111665000Y-99874605D01*
X110994841Y-100544764D01*
X107895000Y-100544764D01*
X107895000Y-99773438D01*
X110426505Y-99773438D01*
X110465605Y-100013549D01*
X110550798Y-100241418D01*
X110591652Y-100317852D01*
X110815236Y-100365159D01*
X111485395Y-99695000D01*
X110815236Y-99024841D01*
X110591652Y-99072148D01*
X110490763Y-99293516D01*
X110435000Y-99530313D01*
X110426505Y-99773438D01*
X107895000Y-99773438D01*
X107895000Y-98544764D01*
X110994841Y-98544764D01*
X111026629Y-98695000D01*
X110994841Y-98845236D01*
X111665000Y-99515395D01*
X112335159Y-98845236D01*
X112303371Y-98695000D01*
X112335159Y-98544764D01*
X111665000Y-97874605D01*
X110994841Y-98544764D01*
X107895000Y-98544764D01*
X107895000Y-97773438D01*
X110426505Y-97773438D01*
X110465605Y-98013549D01*
X110550798Y-98241418D01*
X110591652Y-98317852D01*
X110815236Y-98365159D01*
X111485395Y-97695000D01*
X110815236Y-97024841D01*
X110591652Y-97072148D01*
X110490763Y-97293516D01*
X110435000Y-97530313D01*
X110426505Y-97773438D01*
X107895000Y-97773438D01*
X107895000Y-79805666D01*
X108382823Y-80293489D01*
X108978182Y-80691295D01*
X109639710Y-80965309D01*
X110341984Y-81105000D01*
X111058016Y-81105000D01*
X111760290Y-80965309D01*
X112421818Y-80691295D01*
X113017177Y-80293489D01*
X113523489Y-79787177D01*
X113921295Y-79191818D01*
X114179988Y-78567279D01*
X114173000Y-78602408D01*
G36*
X165065000Y-77111984D02*
G01*
X165065000Y-77828016D01*
X165161971Y-78315520D01*
X165097636Y-78136977D01*
X165035656Y-78021020D01*
X164795565Y-77954040D01*
X164009605Y-78740000D01*
X164795565Y-79525960D01*
X165035656Y-79458980D01*
X165152756Y-79209952D01*
X165219023Y-78942865D01*
X165231910Y-78667983D01*
X165214872Y-78554869D01*
X165478705Y-79191818D01*
X165876511Y-79787177D01*
X166382823Y-80293489D01*
X166978182Y-80691295D01*
X167639710Y-80965309D01*
X168341984Y-81105000D01*
X169058016Y-81105000D01*
X169760290Y-80965309D01*
X170421818Y-80691295D01*
X171017177Y-80293489D01*
X171505000Y-79805666D01*
X171505001Y-124134335D01*
X171017177Y-123646511D01*
X170421818Y-123248705D01*
X169760290Y-122974691D01*
X169058016Y-122835000D01*
X168341984Y-122835000D01*
X167639710Y-122974691D01*
X166978182Y-123248705D01*
X166382823Y-123646511D01*
X165876511Y-124152823D01*
X165478705Y-124748182D01*
X165204691Y-125409710D01*
X165065000Y-126111984D01*
X165065000Y-126828016D01*
X165204691Y-127530290D01*
X165478705Y-128191818D01*
X165876511Y-128787177D01*
X166364334Y-129275000D01*
X164592000Y-129275000D01*
X164592000Y-109220000D01*
X164589560Y-109195224D01*
X164582333Y-109171399D01*
X164570597Y-109149443D01*
X164554803Y-109130197D01*
X164535557Y-109114403D01*
X164513601Y-109102667D01*
X164489776Y-109095440D01*
X164465000Y-109093000D01*
X159799669Y-109093000D01*
X159816818Y-109089367D01*
X160076646Y-108978715D01*
X160309895Y-108819500D01*
X160507601Y-108617839D01*
X160662166Y-108381483D01*
X160767650Y-108119514D01*
X160820000Y-107842000D01*
X160820000Y-107442000D01*
X159512000Y-107442000D01*
X159512000Y-107462000D01*
X159258000Y-107462000D01*
X159258000Y-107442000D01*
X159238000Y-107442000D01*
X159238000Y-107188000D01*
X159258000Y-107188000D01*
X159258000Y-105645085D01*
X159512000Y-105645085D01*
X159512000Y-107188000D01*
X160820000Y-107188000D01*
X160820000Y-106788000D01*
X160767650Y-106510486D01*
X160662166Y-106248517D01*
X160507601Y-106012161D01*
X160309895Y-105810500D01*
X160076646Y-105651285D01*
X159816818Y-105540633D01*
X159734039Y-105523096D01*
X159512000Y-105645085D01*
X159258000Y-105645085D01*
X159035961Y-105523096D01*
X158953182Y-105540633D01*
X158693354Y-105651285D01*
X158460105Y-105810500D01*
X158262399Y-106012161D01*
X158112265Y-106241741D01*
X158043932Y-106113899D01*
X157864607Y-105895392D01*
X157646100Y-105716068D01*
X157396807Y-105582818D01*
X157126308Y-105500764D01*
X156845000Y-105473057D01*
X156563691Y-105500764D01*
X156293192Y-105582818D01*
X156043899Y-105716068D01*
X155825392Y-105895393D01*
X155646068Y-106113900D01*
X155575000Y-106246858D01*
X155503932Y-106113899D01*
X155324607Y-105895392D01*
X155106100Y-105716068D01*
X154856807Y-105582818D01*
X154586308Y-105500764D01*
X154305000Y-105473057D01*
X154023691Y-105500764D01*
X153753192Y-105582818D01*
X153503899Y-105716068D01*
X153285392Y-105895393D01*
X153106068Y-106113900D01*
X153035000Y-106246858D01*
X152963932Y-106113899D01*
X152784607Y-105895392D01*
X152566100Y-105716068D01*
X152316807Y-105582818D01*
X152046308Y-105500764D01*
X151765000Y-105473057D01*
X151483691Y-105500764D01*
X151213192Y-105582818D01*
X150963899Y-105716068D01*
X150745392Y-105895393D01*
X150566068Y-106113900D01*
X150432818Y-106363193D01*
X150350764Y-106633692D01*
X150330000Y-106844509D01*
X150330000Y-107785492D01*
X150350764Y-107996309D01*
X150432818Y-108266808D01*
X150566068Y-108516101D01*
X150745393Y-108734608D01*
X150963900Y-108913932D01*
X151213193Y-109047182D01*
X151364236Y-109093000D01*
X145194669Y-109093000D01*
X145211818Y-109089367D01*
X145471646Y-108978715D01*
X145704895Y-108819500D01*
X145902601Y-108617839D01*
X146057166Y-108381483D01*
X146162650Y-108119514D01*
X146215000Y-107842000D01*
X146215000Y-107442000D01*
X144907000Y-107442000D01*
X144907000Y-107462000D01*
X144653000Y-107462000D01*
X144653000Y-107442000D01*
X144633000Y-107442000D01*
X144633000Y-107188000D01*
X144653000Y-107188000D01*
X144653000Y-105645085D01*
X144907000Y-105645085D01*
X144907000Y-107188000D01*
X146215000Y-107188000D01*
X146215000Y-106788000D01*
X146162650Y-106510486D01*
X146057166Y-106248517D01*
X145902601Y-106012161D01*
X145704895Y-105810500D01*
X145471646Y-105651285D01*
X145211818Y-105540633D01*
X145129039Y-105523096D01*
X144907000Y-105645085D01*
X144653000Y-105645085D01*
X144531765Y-105578478D01*
X144545000Y-105511939D01*
X144545000Y-105308061D01*
X144505226Y-105108102D01*
X144427205Y-104919744D01*
X144313937Y-104750226D01*
X144169774Y-104606063D01*
X144000256Y-104492795D01*
X143811898Y-104414774D01*
X143611939Y-104375000D01*
X143408061Y-104375000D01*
X143208102Y-104414774D01*
X143019744Y-104492795D01*
X142850226Y-104606063D01*
X142831289Y-104625000D01*
X138420157Y-104625000D01*
X141930158Y-101115000D01*
X145453561Y-101115000D01*
X145568887Y-101103641D01*
X145613855Y-101090000D01*
X161610199Y-101090000D01*
X164700000Y-104179802D01*
X164700000Y-104241939D01*
X164739774Y-104441898D01*
X164817795Y-104630256D01*
X164931063Y-104799774D01*
X165075226Y-104943937D01*
X165244744Y-105057205D01*
X165433102Y-105135226D01*
X165633061Y-105175000D01*
X165836939Y-105175000D01*
X166036898Y-105135226D01*
X166225256Y-105057205D01*
X166394774Y-104943937D01*
X166538937Y-104799774D01*
X166652205Y-104630256D01*
X166730226Y-104441898D01*
X166770000Y-104241939D01*
X166770000Y-104038061D01*
X166730226Y-103838102D01*
X166652205Y-103649744D01*
X166538937Y-103480226D01*
X166394774Y-103336063D01*
X166225256Y-103222795D01*
X166036898Y-103144774D01*
X165836939Y-103105000D01*
X165774802Y-103105000D01*
X162488804Y-99819003D01*
X162465001Y-99789999D01*
X162349276Y-99695026D01*
X162217247Y-99624454D01*
X162073986Y-99580997D01*
X161962333Y-99570000D01*
X161962322Y-99570000D01*
X161925000Y-99566324D01*
X161887678Y-99570000D01*
X145613855Y-99570000D01*
X145568887Y-99556359D01*
X145453561Y-99545000D01*
X142390000Y-99545000D01*
X142390000Y-97833711D01*
X142408937Y-97814774D01*
X142522205Y-97645256D01*
X142600226Y-97456898D01*
X142640000Y-97256939D01*
X142640000Y-97053061D01*
X142600226Y-96853102D01*
X142522205Y-96664744D01*
X142408937Y-96495226D01*
X142390000Y-96476289D01*
X142390000Y-95115413D01*
X164144192Y-95115413D01*
X164239956Y-95379814D01*
X164529571Y-95520704D01*
X164841108Y-95602384D01*
X165162595Y-95621718D01*
X165481675Y-95577961D01*
X165786088Y-95472795D01*
X165960044Y-95379814D01*
X166055808Y-95115413D01*
X165100000Y-94159605D01*
X164144192Y-95115413D01*
X142390000Y-95115413D01*
X142390000Y-94940157D01*
X143287562Y-94042595D01*
X163458282Y-94042595D01*
X163502039Y-94361675D01*
X163607205Y-94666088D01*
X163700186Y-94840044D01*
X163964587Y-94935808D01*
X164920395Y-93980000D01*
X165279605Y-93980000D01*
X166235413Y-94935808D01*
X166499814Y-94840044D01*
X166640704Y-94550429D01*
X166722384Y-94238892D01*
X166741718Y-93917405D01*
X166697961Y-93598325D01*
X166592795Y-93293912D01*
X166499814Y-93119956D01*
X166235413Y-93024192D01*
X165279605Y-93980000D01*
X164920395Y-93980000D01*
X163964587Y-93024192D01*
X163700186Y-93119956D01*
X163559296Y-93409571D01*
X163477616Y-93721108D01*
X163458282Y-94042595D01*
X143287562Y-94042595D01*
X144485570Y-92844587D01*
X164144192Y-92844587D01*
X165100000Y-93800395D01*
X166055808Y-92844587D01*
X165960044Y-92580186D01*
X165670429Y-92439296D01*
X165358892Y-92357616D01*
X165037405Y-92338282D01*
X164718325Y-92382039D01*
X164413912Y-92487205D01*
X164239956Y-92580186D01*
X164144192Y-92844587D01*
X144485570Y-92844587D01*
X145490157Y-91840000D01*
X145516939Y-91840000D01*
X145716898Y-91800226D01*
X145905256Y-91722205D01*
X146074774Y-91608937D01*
X146093711Y-91590000D01*
X152836449Y-91590000D01*
X152875002Y-91593797D01*
X152913555Y-91590000D01*
X152913563Y-91590000D01*
X153028889Y-91578641D01*
X153176862Y-91533754D01*
X153313235Y-91460862D01*
X153432766Y-91362764D01*
X153457349Y-91332810D01*
X156852818Y-87937342D01*
X156882765Y-87912765D01*
X156980863Y-87793234D01*
X157053755Y-87656861D01*
X157098642Y-87508888D01*
X157110001Y-87393562D01*
X157110001Y-87393555D01*
X157113798Y-87355002D01*
X157110001Y-87316449D01*
X157110001Y-83973557D01*
X157113798Y-83935001D01*
X157110001Y-83896445D01*
X157110001Y-83896440D01*
X157102470Y-83819974D01*
X157098643Y-83781114D01*
X157053755Y-83633141D01*
X157048459Y-83623233D01*
X156980863Y-83496768D01*
X156882765Y-83377237D01*
X156852806Y-83352650D01*
X156610000Y-83109843D01*
X156610000Y-83083061D01*
X156570226Y-82883102D01*
X156494382Y-82700000D01*
X163449843Y-82700000D01*
X163525360Y-82775517D01*
X163465000Y-83078967D01*
X163465000Y-83401033D01*
X163527832Y-83716912D01*
X163651082Y-84014463D01*
X163830013Y-84282252D01*
X164057748Y-84509987D01*
X164325537Y-84688918D01*
X164623088Y-84812168D01*
X164938967Y-84875000D01*
X165261033Y-84875000D01*
X165576912Y-84812168D01*
X165874463Y-84688918D01*
X166142252Y-84509987D01*
X166369987Y-84282252D01*
X166548918Y-84014463D01*
X166672168Y-83716912D01*
X166735000Y-83401033D01*
X166735000Y-83078967D01*
X166672168Y-82763088D01*
X166548918Y-82465537D01*
X166369987Y-82197748D01*
X166142252Y-81970013D01*
X165874463Y-81791082D01*
X165576912Y-81667832D01*
X165261033Y-81605000D01*
X164938967Y-81605000D01*
X164635517Y-81665360D01*
X164357347Y-81387190D01*
X164332764Y-81357236D01*
X164213233Y-81259138D01*
X164076860Y-81186246D01*
X163928887Y-81141359D01*
X163813561Y-81130000D01*
X163813553Y-81130000D01*
X163775000Y-81126203D01*
X163736447Y-81130000D01*
X155773554Y-81130000D01*
X155734998Y-81126203D01*
X155696442Y-81130000D01*
X155696437Y-81130000D01*
X155656024Y-81133980D01*
X155581111Y-81141358D01*
X155437242Y-81185001D01*
X155433138Y-81186246D01*
X155296765Y-81259138D01*
X155177234Y-81357236D01*
X155152651Y-81387190D01*
X153777185Y-82762656D01*
X153747237Y-82787234D01*
X153722659Y-82817182D01*
X153722655Y-82817186D01*
X153720346Y-82820000D01*
X153649139Y-82906765D01*
X153637181Y-82929138D01*
X153576246Y-83043139D01*
X153531359Y-83191112D01*
X153516203Y-83344998D01*
X153520001Y-83383560D01*
X153520000Y-84411289D01*
X153501063Y-84430226D01*
X153387795Y-84599744D01*
X153309774Y-84788102D01*
X153270000Y-84988061D01*
X153270000Y-85191939D01*
X153308402Y-85385001D01*
X148059122Y-85385001D01*
X148110824Y-85307624D01*
X148196383Y-85101067D01*
X148240000Y-84881788D01*
X148240000Y-84658212D01*
X148196383Y-84438933D01*
X148110824Y-84232376D01*
X147986612Y-84046480D01*
X147828520Y-83888388D01*
X147726170Y-83820000D01*
X147828520Y-83751612D01*
X147986612Y-83593520D01*
X148110824Y-83407624D01*
X148196383Y-83201067D01*
X148240000Y-82981788D01*
X148240000Y-82758212D01*
X148196383Y-82538933D01*
X148110824Y-82332376D01*
X147986612Y-82146480D01*
X147828520Y-81988388D01*
X147642624Y-81864176D01*
X147436067Y-81778617D01*
X147216788Y-81735000D01*
X146993212Y-81735000D01*
X146773933Y-81778617D01*
X146567376Y-81864176D01*
X146381480Y-81988388D01*
X146223388Y-82146480D01*
X146099176Y-82332376D01*
X146013617Y-82538933D01*
X145970000Y-82758212D01*
X145970000Y-82981788D01*
X146013617Y-83201067D01*
X146099176Y-83407624D01*
X146223388Y-83593520D01*
X146381480Y-83751612D01*
X146483830Y-83820000D01*
X146381480Y-83888388D01*
X146223388Y-84046480D01*
X146099176Y-84232376D01*
X146013617Y-84438933D01*
X145970000Y-84658212D01*
X145970000Y-84881788D01*
X146013617Y-85101067D01*
X146099176Y-85307624D01*
X146150878Y-85385001D01*
X142743072Y-85385001D01*
X142743072Y-84820000D01*
X142730812Y-84695518D01*
X142694502Y-84575820D01*
X142635537Y-84465506D01*
X142556185Y-84368815D01*
X142459494Y-84289463D01*
X142349180Y-84230498D01*
X142229482Y-84194188D01*
X142105000Y-84181928D01*
X141105000Y-84181928D01*
X140980518Y-84194188D01*
X140860820Y-84230498D01*
X140750506Y-84289463D01*
X140653815Y-84368815D01*
X140574463Y-84465506D01*
X140515498Y-84575820D01*
X140479188Y-84695518D01*
X140466928Y-84820000D01*
X140466928Y-85385001D01*
X137504444Y-85385001D01*
X137442205Y-85234744D01*
X137328937Y-85065226D01*
X137184774Y-84921063D01*
X137015256Y-84807795D01*
X136826898Y-84729774D01*
X136626939Y-84690000D01*
X136423061Y-84690000D01*
X136223102Y-84729774D01*
X136034744Y-84807795D01*
X135865226Y-84921063D01*
X135846289Y-84940000D01*
X133515160Y-84940000D01*
X131232349Y-82657190D01*
X131207766Y-82627236D01*
X131088235Y-82529138D01*
X130951862Y-82456246D01*
X130803889Y-82411359D01*
X130688563Y-82400000D01*
X130688555Y-82400000D01*
X130650002Y-82396203D01*
X130611449Y-82400000D01*
X127678711Y-82400000D01*
X127659774Y-82381063D01*
X127490256Y-82267795D01*
X127301898Y-82189774D01*
X127101939Y-82150000D01*
X126898061Y-82150000D01*
X126698102Y-82189774D01*
X126509744Y-82267795D01*
X126340226Y-82381063D01*
X126296289Y-82425000D01*
X123504803Y-82425000D01*
X122899803Y-81820000D01*
X140466928Y-81820000D01*
X140466928Y-82820000D01*
X140479188Y-82944482D01*
X140515498Y-83064180D01*
X140574463Y-83174494D01*
X140653815Y-83271185D01*
X140750506Y-83350537D01*
X140860820Y-83409502D01*
X140980518Y-83445812D01*
X141105000Y-83458072D01*
X142105000Y-83458072D01*
X142229482Y-83445812D01*
X142349180Y-83409502D01*
X142459494Y-83350537D01*
X142556185Y-83271185D01*
X142635537Y-83174494D01*
X142694502Y-83064180D01*
X142730812Y-82944482D01*
X142743072Y-82820000D01*
X142743072Y-81820000D01*
X142730812Y-81695518D01*
X142694502Y-81575820D01*
X142635537Y-81465506D01*
X142556185Y-81368815D01*
X142459494Y-81289463D01*
X142349180Y-81230498D01*
X142229482Y-81194188D01*
X142105000Y-81181928D01*
X141105000Y-81181928D01*
X140980518Y-81194188D01*
X140860820Y-81230498D01*
X140750506Y-81289463D01*
X140653815Y-81368815D01*
X140574463Y-81465506D01*
X140515498Y-81575820D01*
X140479188Y-81695518D01*
X140466928Y-81820000D01*
X122899803Y-81820000D01*
X121410000Y-80330199D01*
X121410000Y-79912341D01*
X121540535Y-79825120D01*
X121735120Y-79630535D01*
X121888005Y-79401727D01*
X121920000Y-79324485D01*
X121951995Y-79401727D01*
X122104880Y-79630535D01*
X122299465Y-79825120D01*
X122528273Y-79978005D01*
X122782510Y-80083314D01*
X123052408Y-80137000D01*
X123327592Y-80137000D01*
X123597490Y-80083314D01*
X123851727Y-79978005D01*
X124080535Y-79825120D01*
X124200090Y-79705565D01*
X124944040Y-79705565D01*
X125011020Y-79945656D01*
X125260048Y-80062756D01*
X125527135Y-80129023D01*
X125802017Y-80141910D01*
X126074133Y-80100922D01*
X126333023Y-80007636D01*
X126448980Y-79945656D01*
X126515960Y-79705565D01*
X125730000Y-78919605D01*
X124944040Y-79705565D01*
X124200090Y-79705565D01*
X124275120Y-79630535D01*
X124428005Y-79401727D01*
X124457692Y-79330057D01*
X124462364Y-79343023D01*
X124524344Y-79458980D01*
X124764435Y-79525960D01*
X125550395Y-78740000D01*
X124764435Y-77954040D01*
X124524344Y-78021020D01*
X124460515Y-78156760D01*
X124428005Y-78078273D01*
X124275120Y-77849465D01*
X124080535Y-77654880D01*
X123851727Y-77501995D01*
X123774485Y-77470000D01*
X123851727Y-77438005D01*
X124080535Y-77285120D01*
X124275120Y-77090535D01*
X124428005Y-76861727D01*
X124460000Y-76784485D01*
X124491995Y-76861727D01*
X124644880Y-77090535D01*
X124839465Y-77285120D01*
X125068273Y-77438005D01*
X125139943Y-77467692D01*
X125126977Y-77472364D01*
X125011020Y-77534344D01*
X124944040Y-77774435D01*
X125730000Y-78560395D01*
X126515960Y-77774435D01*
X126448980Y-77534344D01*
X126313240Y-77470515D01*
X126391727Y-77438005D01*
X126620535Y-77285120D01*
X126815120Y-77090535D01*
X126968005Y-76861727D01*
X127000000Y-76784485D01*
X127031995Y-76861727D01*
X127184880Y-77090535D01*
X127379465Y-77285120D01*
X127608273Y-77438005D01*
X127685515Y-77470000D01*
X127608273Y-77501995D01*
X127379465Y-77654880D01*
X127184880Y-77849465D01*
X127031995Y-78078273D01*
X127002308Y-78149943D01*
X126997636Y-78136977D01*
X126935656Y-78021020D01*
X126695565Y-77954040D01*
X125909605Y-78740000D01*
X126695565Y-79525960D01*
X126935656Y-79458980D01*
X126999485Y-79323240D01*
X127031995Y-79401727D01*
X127184880Y-79630535D01*
X127379465Y-79825120D01*
X127608273Y-79978005D01*
X127862510Y-80083314D01*
X128132408Y-80137000D01*
X128407592Y-80137000D01*
X128677490Y-80083314D01*
X128931727Y-79978005D01*
X129160535Y-79825120D01*
X129355120Y-79630535D01*
X129508005Y-79401727D01*
X129540000Y-79324485D01*
X129571995Y-79401727D01*
X129724880Y-79630535D01*
X129919465Y-79825120D01*
X130148273Y-79978005D01*
X130402510Y-80083314D01*
X130672408Y-80137000D01*
X130947592Y-80137000D01*
X131217490Y-80083314D01*
X131471727Y-79978005D01*
X131700535Y-79825120D01*
X131895120Y-79630535D01*
X132048005Y-79401727D01*
X132080000Y-79324485D01*
X132111995Y-79401727D01*
X132264880Y-79630535D01*
X132459465Y-79825120D01*
X132688273Y-79978005D01*
X132942510Y-80083314D01*
X133212408Y-80137000D01*
X133487592Y-80137000D01*
X133757490Y-80083314D01*
X134011727Y-79978005D01*
X134240535Y-79825120D01*
X134435120Y-79630535D01*
X134588005Y-79401727D01*
X134620000Y-79324485D01*
X134651995Y-79401727D01*
X134804880Y-79630535D01*
X134999465Y-79825120D01*
X135228273Y-79978005D01*
X135482510Y-80083314D01*
X135752408Y-80137000D01*
X136027592Y-80137000D01*
X136297490Y-80083314D01*
X136551727Y-79978005D01*
X136780535Y-79825120D01*
X136975120Y-79630535D01*
X137128005Y-79401727D01*
X137160000Y-79324485D01*
X137191995Y-79401727D01*
X137344880Y-79630535D01*
X137539465Y-79825120D01*
X137768273Y-79978005D01*
X138022510Y-80083314D01*
X138292408Y-80137000D01*
X138567592Y-80137000D01*
X138837490Y-80083314D01*
X139091727Y-79978005D01*
X139320535Y-79825120D01*
X139515120Y-79630535D01*
X139668005Y-79401727D01*
X139700000Y-79324485D01*
X139731995Y-79401727D01*
X139884880Y-79630535D01*
X140079465Y-79825120D01*
X140308273Y-79978005D01*
X140562510Y-80083314D01*
X140832408Y-80137000D01*
X141107592Y-80137000D01*
X141377490Y-80083314D01*
X141631727Y-79978005D01*
X141860535Y-79825120D01*
X142055120Y-79630535D01*
X142208005Y-79401727D01*
X142240000Y-79324485D01*
X142271995Y-79401727D01*
X142424880Y-79630535D01*
X142619465Y-79825120D01*
X142848273Y-79978005D01*
X143102510Y-80083314D01*
X143372408Y-80137000D01*
X143647592Y-80137000D01*
X143917490Y-80083314D01*
X144171727Y-79978005D01*
X144400535Y-79825120D01*
X144520090Y-79705565D01*
X145264040Y-79705565D01*
X145331020Y-79945656D01*
X145580048Y-80062756D01*
X145847135Y-80129023D01*
X146122017Y-80141910D01*
X146394133Y-80100922D01*
X146653023Y-80007636D01*
X146768980Y-79945656D01*
X146835960Y-79705565D01*
X146050000Y-78919605D01*
X145264040Y-79705565D01*
X144520090Y-79705565D01*
X144595120Y-79630535D01*
X144748005Y-79401727D01*
X144777692Y-79330057D01*
X144782364Y-79343023D01*
X144844344Y-79458980D01*
X145084435Y-79525960D01*
X145870395Y-78740000D01*
X145084435Y-77954040D01*
X144844344Y-78021020D01*
X144780515Y-78156760D01*
X144748005Y-78078273D01*
X144595120Y-77849465D01*
X144400535Y-77654880D01*
X144171727Y-77501995D01*
X144094485Y-77470000D01*
X144171727Y-77438005D01*
X144400535Y-77285120D01*
X144595120Y-77090535D01*
X144748005Y-76861727D01*
X144780000Y-76784485D01*
X144811995Y-76861727D01*
X144964880Y-77090535D01*
X145159465Y-77285120D01*
X145388273Y-77438005D01*
X145459943Y-77467692D01*
X145446977Y-77472364D01*
X145331020Y-77534344D01*
X145264040Y-77774435D01*
X146050000Y-78560395D01*
X146835960Y-77774435D01*
X146768980Y-77534344D01*
X146633240Y-77470515D01*
X146711727Y-77438005D01*
X146940535Y-77285120D01*
X147135120Y-77090535D01*
X147288005Y-76861727D01*
X147320000Y-76784485D01*
X147351995Y-76861727D01*
X147504880Y-77090535D01*
X147699465Y-77285120D01*
X147928273Y-77438005D01*
X148005515Y-77470000D01*
X147928273Y-77501995D01*
X147699465Y-77654880D01*
X147504880Y-77849465D01*
X147351995Y-78078273D01*
X147322308Y-78149943D01*
X147317636Y-78136977D01*
X147255656Y-78021020D01*
X147015565Y-77954040D01*
X146229605Y-78740000D01*
X147015565Y-79525960D01*
X147255656Y-79458980D01*
X147319485Y-79323240D01*
X147351995Y-79401727D01*
X147504880Y-79630535D01*
X147699465Y-79825120D01*
X147928273Y-79978005D01*
X148182510Y-80083314D01*
X148452408Y-80137000D01*
X148727592Y-80137000D01*
X148997490Y-80083314D01*
X149251727Y-79978005D01*
X149480535Y-79825120D01*
X149675120Y-79630535D01*
X149828005Y-79401727D01*
X149860000Y-79324485D01*
X149891995Y-79401727D01*
X150044880Y-79630535D01*
X150239465Y-79825120D01*
X150468273Y-79978005D01*
X150722510Y-80083314D01*
X150992408Y-80137000D01*
X151267592Y-80137000D01*
X151537490Y-80083314D01*
X151791727Y-79978005D01*
X152020535Y-79825120D01*
X152215120Y-79630535D01*
X152368005Y-79401727D01*
X152400000Y-79324485D01*
X152431995Y-79401727D01*
X152584880Y-79630535D01*
X152779465Y-79825120D01*
X153008273Y-79978005D01*
X153262510Y-80083314D01*
X153532408Y-80137000D01*
X153807592Y-80137000D01*
X154077490Y-80083314D01*
X154331727Y-79978005D01*
X154560535Y-79825120D01*
X154755120Y-79630535D01*
X154908005Y-79401727D01*
X154940000Y-79324485D01*
X154971995Y-79401727D01*
X155124880Y-79630535D01*
X155319465Y-79825120D01*
X155548273Y-79978005D01*
X155802510Y-80083314D01*
X156072408Y-80137000D01*
X156347592Y-80137000D01*
X156617490Y-80083314D01*
X156871727Y-79978005D01*
X157100535Y-79825120D01*
X157295120Y-79630535D01*
X157448005Y-79401727D01*
X157480000Y-79324485D01*
X157511995Y-79401727D01*
X157664880Y-79630535D01*
X157859465Y-79825120D01*
X158088273Y-79978005D01*
X158342510Y-80083314D01*
X158612408Y-80137000D01*
X158887592Y-80137000D01*
X159157490Y-80083314D01*
X159411727Y-79978005D01*
X159640535Y-79825120D01*
X159835120Y-79630535D01*
X159988005Y-79401727D01*
X160020000Y-79324485D01*
X160051995Y-79401727D01*
X160204880Y-79630535D01*
X160399465Y-79825120D01*
X160628273Y-79978005D01*
X160882510Y-80083314D01*
X161152408Y-80137000D01*
X161427592Y-80137000D01*
X161697490Y-80083314D01*
X161951727Y-79978005D01*
X162180535Y-79825120D01*
X162300090Y-79705565D01*
X163044040Y-79705565D01*
X163111020Y-79945656D01*
X163360048Y-80062756D01*
X163627135Y-80129023D01*
X163902017Y-80141910D01*
X164174133Y-80100922D01*
X164433023Y-80007636D01*
X164548980Y-79945656D01*
X164615960Y-79705565D01*
X163830000Y-78919605D01*
X163044040Y-79705565D01*
X162300090Y-79705565D01*
X162375120Y-79630535D01*
X162528005Y-79401727D01*
X162557692Y-79330057D01*
X162562364Y-79343023D01*
X162624344Y-79458980D01*
X162864435Y-79525960D01*
X163650395Y-78740000D01*
X162864435Y-77954040D01*
X162624344Y-78021020D01*
X162560515Y-78156760D01*
X162528005Y-78078273D01*
X162375120Y-77849465D01*
X162180535Y-77654880D01*
X161951727Y-77501995D01*
X161874485Y-77470000D01*
X161951727Y-77438005D01*
X162180535Y-77285120D01*
X162375120Y-77090535D01*
X162528005Y-76861727D01*
X162560000Y-76784485D01*
X162591995Y-76861727D01*
X162744880Y-77090535D01*
X162939465Y-77285120D01*
X163168273Y-77438005D01*
X163239943Y-77467692D01*
X163226977Y-77472364D01*
X163111020Y-77534344D01*
X163044040Y-77774435D01*
X163830000Y-78560395D01*
X164615960Y-77774435D01*
X164548980Y-77534344D01*
X164413240Y-77470515D01*
X164491727Y-77438005D01*
X164720535Y-77285120D01*
X164915120Y-77090535D01*
X165068005Y-76861727D01*
X165157993Y-76644479D01*
X165065000Y-77111984D01*
G37*
X165065000Y-77111984D02*
X165065000Y-77828016D01*
X165161971Y-78315520D01*
X165097636Y-78136977D01*
X165035656Y-78021020D01*
X164795565Y-77954040D01*
X164009605Y-78740000D01*
X164795565Y-79525960D01*
X165035656Y-79458980D01*
X165152756Y-79209952D01*
X165219023Y-78942865D01*
X165231910Y-78667983D01*
X165214872Y-78554869D01*
X165478705Y-79191818D01*
X165876511Y-79787177D01*
X166382823Y-80293489D01*
X166978182Y-80691295D01*
X167639710Y-80965309D01*
X168341984Y-81105000D01*
X169058016Y-81105000D01*
X169760290Y-80965309D01*
X170421818Y-80691295D01*
X171017177Y-80293489D01*
X171505000Y-79805666D01*
X171505001Y-124134335D01*
X171017177Y-123646511D01*
X170421818Y-123248705D01*
X169760290Y-122974691D01*
X169058016Y-122835000D01*
X168341984Y-122835000D01*
X167639710Y-122974691D01*
X166978182Y-123248705D01*
X166382823Y-123646511D01*
X165876511Y-124152823D01*
X165478705Y-124748182D01*
X165204691Y-125409710D01*
X165065000Y-126111984D01*
X165065000Y-126828016D01*
X165204691Y-127530290D01*
X165478705Y-128191818D01*
X165876511Y-128787177D01*
X166364334Y-129275000D01*
X164592000Y-129275000D01*
X164592000Y-109220000D01*
X164589560Y-109195224D01*
X164582333Y-109171399D01*
X164570597Y-109149443D01*
X164554803Y-109130197D01*
X164535557Y-109114403D01*
X164513601Y-109102667D01*
X164489776Y-109095440D01*
X164465000Y-109093000D01*
X159799669Y-109093000D01*
X159816818Y-109089367D01*
X160076646Y-108978715D01*
X160309895Y-108819500D01*
X160507601Y-108617839D01*
X160662166Y-108381483D01*
X160767650Y-108119514D01*
X160820000Y-107842000D01*
X160820000Y-107442000D01*
X159512000Y-107442000D01*
X159512000Y-107462000D01*
X159258000Y-107462000D01*
X159258000Y-107442000D01*
X159238000Y-107442000D01*
X159238000Y-107188000D01*
X159258000Y-107188000D01*
X159258000Y-105645085D01*
X159512000Y-105645085D01*
X159512000Y-107188000D01*
X160820000Y-107188000D01*
X160820000Y-106788000D01*
X160767650Y-106510486D01*
X160662166Y-106248517D01*
X160507601Y-106012161D01*
X160309895Y-105810500D01*
X160076646Y-105651285D01*
X159816818Y-105540633D01*
X159734039Y-105523096D01*
X159512000Y-105645085D01*
X159258000Y-105645085D01*
X159035961Y-105523096D01*
X158953182Y-105540633D01*
X158693354Y-105651285D01*
X158460105Y-105810500D01*
X158262399Y-106012161D01*
X158112265Y-106241741D01*
X158043932Y-106113899D01*
X157864607Y-105895392D01*
X157646100Y-105716068D01*
X157396807Y-105582818D01*
X157126308Y-105500764D01*
X156845000Y-105473057D01*
X156563691Y-105500764D01*
X156293192Y-105582818D01*
X156043899Y-105716068D01*
X155825392Y-105895393D01*
X155646068Y-106113900D01*
X155575000Y-106246858D01*
X155503932Y-106113899D01*
X155324607Y-105895392D01*
X155106100Y-105716068D01*
X154856807Y-105582818D01*
X154586308Y-105500764D01*
X154305000Y-105473057D01*
X154023691Y-105500764D01*
X153753192Y-105582818D01*
X153503899Y-105716068D01*
X153285392Y-105895393D01*
X153106068Y-106113900D01*
X153035000Y-106246858D01*
X152963932Y-106113899D01*
X152784607Y-105895392D01*
X152566100Y-105716068D01*
X152316807Y-105582818D01*
X152046308Y-105500764D01*
X151765000Y-105473057D01*
X151483691Y-105500764D01*
X151213192Y-105582818D01*
X150963899Y-105716068D01*
X150745392Y-105895393D01*
X150566068Y-106113900D01*
X150432818Y-106363193D01*
X150350764Y-106633692D01*
X150330000Y-106844509D01*
X150330000Y-107785492D01*
X150350764Y-107996309D01*
X150432818Y-108266808D01*
X150566068Y-108516101D01*
X150745393Y-108734608D01*
X150963900Y-108913932D01*
X151213193Y-109047182D01*
X151364236Y-109093000D01*
X145194669Y-109093000D01*
X145211818Y-109089367D01*
X145471646Y-108978715D01*
X145704895Y-108819500D01*
X145902601Y-108617839D01*
X146057166Y-108381483D01*
X146162650Y-108119514D01*
X146215000Y-107842000D01*
X146215000Y-107442000D01*
X144907000Y-107442000D01*
X144907000Y-107462000D01*
X144653000Y-107462000D01*
X144653000Y-107442000D01*
X144633000Y-107442000D01*
X144633000Y-107188000D01*
X144653000Y-107188000D01*
X144653000Y-105645085D01*
X144907000Y-105645085D01*
X144907000Y-107188000D01*
X146215000Y-107188000D01*
X146215000Y-106788000D01*
X146162650Y-106510486D01*
X146057166Y-106248517D01*
X145902601Y-106012161D01*
X145704895Y-105810500D01*
X145471646Y-105651285D01*
X145211818Y-105540633D01*
X145129039Y-105523096D01*
X144907000Y-105645085D01*
X144653000Y-105645085D01*
X144531765Y-105578478D01*
X144545000Y-105511939D01*
X144545000Y-105308061D01*
X144505226Y-105108102D01*
X144427205Y-104919744D01*
X144313937Y-104750226D01*
X144169774Y-104606063D01*
X144000256Y-104492795D01*
X143811898Y-104414774D01*
X143611939Y-104375000D01*
X143408061Y-104375000D01*
X143208102Y-104414774D01*
X143019744Y-104492795D01*
X142850226Y-104606063D01*
X142831289Y-104625000D01*
X138420157Y-104625000D01*
X141930158Y-101115000D01*
X145453561Y-101115000D01*
X145568887Y-101103641D01*
X145613855Y-101090000D01*
X161610199Y-101090000D01*
X164700000Y-104179802D01*
X164700000Y-104241939D01*
X164739774Y-104441898D01*
X164817795Y-104630256D01*
X164931063Y-104799774D01*
X165075226Y-104943937D01*
X165244744Y-105057205D01*
X165433102Y-105135226D01*
X165633061Y-105175000D01*
X165836939Y-105175000D01*
X166036898Y-105135226D01*
X166225256Y-105057205D01*
X166394774Y-104943937D01*
X166538937Y-104799774D01*
X166652205Y-104630256D01*
X166730226Y-104441898D01*
X166770000Y-104241939D01*
X166770000Y-104038061D01*
X166730226Y-103838102D01*
X166652205Y-103649744D01*
X166538937Y-103480226D01*
X166394774Y-103336063D01*
X166225256Y-103222795D01*
X166036898Y-103144774D01*
X165836939Y-103105000D01*
X165774802Y-103105000D01*
X162488804Y-99819003D01*
X162465001Y-99789999D01*
X162349276Y-99695026D01*
X162217247Y-99624454D01*
X162073986Y-99580997D01*
X161962333Y-99570000D01*
X161962322Y-99570000D01*
X161925000Y-99566324D01*
X161887678Y-99570000D01*
X145613855Y-99570000D01*
X145568887Y-99556359D01*
X145453561Y-99545000D01*
X142390000Y-99545000D01*
X142390000Y-97833711D01*
X142408937Y-97814774D01*
X142522205Y-97645256D01*
X142600226Y-97456898D01*
X142640000Y-97256939D01*
X142640000Y-97053061D01*
X142600226Y-96853102D01*
X142522205Y-96664744D01*
X142408937Y-96495226D01*
X142390000Y-96476289D01*
X142390000Y-95115413D01*
X164144192Y-95115413D01*
X164239956Y-95379814D01*
X164529571Y-95520704D01*
X164841108Y-95602384D01*
X165162595Y-95621718D01*
X165481675Y-95577961D01*
X165786088Y-95472795D01*
X165960044Y-95379814D01*
X166055808Y-95115413D01*
X165100000Y-94159605D01*
X164144192Y-95115413D01*
X142390000Y-95115413D01*
X142390000Y-94940157D01*
X143287562Y-94042595D01*
X163458282Y-94042595D01*
X163502039Y-94361675D01*
X163607205Y-94666088D01*
X163700186Y-94840044D01*
X163964587Y-94935808D01*
X164920395Y-93980000D01*
X165279605Y-93980000D01*
X166235413Y-94935808D01*
X166499814Y-94840044D01*
X166640704Y-94550429D01*
X166722384Y-94238892D01*
X166741718Y-93917405D01*
X166697961Y-93598325D01*
X166592795Y-93293912D01*
X166499814Y-93119956D01*
X166235413Y-93024192D01*
X165279605Y-93980000D01*
X164920395Y-93980000D01*
X163964587Y-93024192D01*
X163700186Y-93119956D01*
X163559296Y-93409571D01*
X163477616Y-93721108D01*
X163458282Y-94042595D01*
X143287562Y-94042595D01*
X144485570Y-92844587D01*
X164144192Y-92844587D01*
X165100000Y-93800395D01*
X166055808Y-92844587D01*
X165960044Y-92580186D01*
X165670429Y-92439296D01*
X165358892Y-92357616D01*
X165037405Y-92338282D01*
X164718325Y-92382039D01*
X164413912Y-92487205D01*
X164239956Y-92580186D01*
X164144192Y-92844587D01*
X144485570Y-92844587D01*
X145490157Y-91840000D01*
X145516939Y-91840000D01*
X145716898Y-91800226D01*
X145905256Y-91722205D01*
X146074774Y-91608937D01*
X146093711Y-91590000D01*
X152836449Y-91590000D01*
X152875002Y-91593797D01*
X152913555Y-91590000D01*
X152913563Y-91590000D01*
X153028889Y-91578641D01*
X153176862Y-91533754D01*
X153313235Y-91460862D01*
X153432766Y-91362764D01*
X153457349Y-91332810D01*
X156852818Y-87937342D01*
X156882765Y-87912765D01*
X156980863Y-87793234D01*
X157053755Y-87656861D01*
X157098642Y-87508888D01*
X157110001Y-87393562D01*
X157110001Y-87393555D01*
X157113798Y-87355002D01*
X157110001Y-87316449D01*
X157110001Y-83973557D01*
X157113798Y-83935001D01*
X157110001Y-83896445D01*
X157110001Y-83896440D01*
X157102470Y-83819974D01*
X157098643Y-83781114D01*
X157053755Y-83633141D01*
X157048459Y-83623233D01*
X156980863Y-83496768D01*
X156882765Y-83377237D01*
X156852806Y-83352650D01*
X156610000Y-83109843D01*
X156610000Y-83083061D01*
X156570226Y-82883102D01*
X156494382Y-82700000D01*
X163449843Y-82700000D01*
X163525360Y-82775517D01*
X163465000Y-83078967D01*
X163465000Y-83401033D01*
X163527832Y-83716912D01*
X163651082Y-84014463D01*
X163830013Y-84282252D01*
X164057748Y-84509987D01*
X164325537Y-84688918D01*
X164623088Y-84812168D01*
X164938967Y-84875000D01*
X165261033Y-84875000D01*
X165576912Y-84812168D01*
X165874463Y-84688918D01*
X166142252Y-84509987D01*
X166369987Y-84282252D01*
X166548918Y-84014463D01*
X166672168Y-83716912D01*
X166735000Y-83401033D01*
X166735000Y-83078967D01*
X166672168Y-82763088D01*
X166548918Y-82465537D01*
X166369987Y-82197748D01*
X166142252Y-81970013D01*
X165874463Y-81791082D01*
X165576912Y-81667832D01*
X165261033Y-81605000D01*
X164938967Y-81605000D01*
X164635517Y-81665360D01*
X164357347Y-81387190D01*
X164332764Y-81357236D01*
X164213233Y-81259138D01*
X164076860Y-81186246D01*
X163928887Y-81141359D01*
X163813561Y-81130000D01*
X163813553Y-81130000D01*
X163775000Y-81126203D01*
X163736447Y-81130000D01*
X155773554Y-81130000D01*
X155734998Y-81126203D01*
X155696442Y-81130000D01*
X155696437Y-81130000D01*
X155656024Y-81133980D01*
X155581111Y-81141358D01*
X155437242Y-81185001D01*
X155433138Y-81186246D01*
X155296765Y-81259138D01*
X155177234Y-81357236D01*
X155152651Y-81387190D01*
X153777185Y-82762656D01*
X153747237Y-82787234D01*
X153722659Y-82817182D01*
X153722655Y-82817186D01*
X153720346Y-82820000D01*
X153649139Y-82906765D01*
X153637181Y-82929138D01*
X153576246Y-83043139D01*
X153531359Y-83191112D01*
X153516203Y-83344998D01*
X153520001Y-83383560D01*
X153520000Y-84411289D01*
X153501063Y-84430226D01*
X153387795Y-84599744D01*
X153309774Y-84788102D01*
X153270000Y-84988061D01*
X153270000Y-85191939D01*
X153308402Y-85385001D01*
X148059122Y-85385001D01*
X148110824Y-85307624D01*
X148196383Y-85101067D01*
X148240000Y-84881788D01*
X148240000Y-84658212D01*
X148196383Y-84438933D01*
X148110824Y-84232376D01*
X147986612Y-84046480D01*
X147828520Y-83888388D01*
X147726170Y-83820000D01*
X147828520Y-83751612D01*
X147986612Y-83593520D01*
X148110824Y-83407624D01*
X148196383Y-83201067D01*
X148240000Y-82981788D01*
X148240000Y-82758212D01*
X148196383Y-82538933D01*
X148110824Y-82332376D01*
X147986612Y-82146480D01*
X147828520Y-81988388D01*
X147642624Y-81864176D01*
X147436067Y-81778617D01*
X147216788Y-81735000D01*
X146993212Y-81735000D01*
X146773933Y-81778617D01*
X146567376Y-81864176D01*
X146381480Y-81988388D01*
X146223388Y-82146480D01*
X146099176Y-82332376D01*
X146013617Y-82538933D01*
X145970000Y-82758212D01*
X145970000Y-82981788D01*
X146013617Y-83201067D01*
X146099176Y-83407624D01*
X146223388Y-83593520D01*
X146381480Y-83751612D01*
X146483830Y-83820000D01*
X146381480Y-83888388D01*
X146223388Y-84046480D01*
X146099176Y-84232376D01*
X146013617Y-84438933D01*
X145970000Y-84658212D01*
X145970000Y-84881788D01*
X146013617Y-85101067D01*
X146099176Y-85307624D01*
X146150878Y-85385001D01*
X142743072Y-85385001D01*
X142743072Y-84820000D01*
X142730812Y-84695518D01*
X142694502Y-84575820D01*
X142635537Y-84465506D01*
X142556185Y-84368815D01*
X142459494Y-84289463D01*
X142349180Y-84230498D01*
X142229482Y-84194188D01*
X142105000Y-84181928D01*
X141105000Y-84181928D01*
X140980518Y-84194188D01*
X140860820Y-84230498D01*
X140750506Y-84289463D01*
X140653815Y-84368815D01*
X140574463Y-84465506D01*
X140515498Y-84575820D01*
X140479188Y-84695518D01*
X140466928Y-84820000D01*
X140466928Y-85385001D01*
X137504444Y-85385001D01*
X137442205Y-85234744D01*
X137328937Y-85065226D01*
X137184774Y-84921063D01*
X137015256Y-84807795D01*
X136826898Y-84729774D01*
X136626939Y-84690000D01*
X136423061Y-84690000D01*
X136223102Y-84729774D01*
X136034744Y-84807795D01*
X135865226Y-84921063D01*
X135846289Y-84940000D01*
X133515160Y-84940000D01*
X131232349Y-82657190D01*
X131207766Y-82627236D01*
X131088235Y-82529138D01*
X130951862Y-82456246D01*
X130803889Y-82411359D01*
X130688563Y-82400000D01*
X130688555Y-82400000D01*
X130650002Y-82396203D01*
X130611449Y-82400000D01*
X127678711Y-82400000D01*
X127659774Y-82381063D01*
X127490256Y-82267795D01*
X127301898Y-82189774D01*
X127101939Y-82150000D01*
X126898061Y-82150000D01*
X126698102Y-82189774D01*
X126509744Y-82267795D01*
X126340226Y-82381063D01*
X126296289Y-82425000D01*
X123504803Y-82425000D01*
X122899803Y-81820000D01*
X140466928Y-81820000D01*
X140466928Y-82820000D01*
X140479188Y-82944482D01*
X140515498Y-83064180D01*
X140574463Y-83174494D01*
X140653815Y-83271185D01*
X140750506Y-83350537D01*
X140860820Y-83409502D01*
X140980518Y-83445812D01*
X141105000Y-83458072D01*
X142105000Y-83458072D01*
X142229482Y-83445812D01*
X142349180Y-83409502D01*
X142459494Y-83350537D01*
X142556185Y-83271185D01*
X142635537Y-83174494D01*
X142694502Y-83064180D01*
X142730812Y-82944482D01*
X142743072Y-82820000D01*
X142743072Y-81820000D01*
X142730812Y-81695518D01*
X142694502Y-81575820D01*
X142635537Y-81465506D01*
X142556185Y-81368815D01*
X142459494Y-81289463D01*
X142349180Y-81230498D01*
X142229482Y-81194188D01*
X142105000Y-81181928D01*
X141105000Y-81181928D01*
X140980518Y-81194188D01*
X140860820Y-81230498D01*
X140750506Y-81289463D01*
X140653815Y-81368815D01*
X140574463Y-81465506D01*
X140515498Y-81575820D01*
X140479188Y-81695518D01*
X140466928Y-81820000D01*
X122899803Y-81820000D01*
X121410000Y-80330199D01*
X121410000Y-79912341D01*
X121540535Y-79825120D01*
X121735120Y-79630535D01*
X121888005Y-79401727D01*
X121920000Y-79324485D01*
X121951995Y-79401727D01*
X122104880Y-79630535D01*
X122299465Y-79825120D01*
X122528273Y-79978005D01*
X122782510Y-80083314D01*
X123052408Y-80137000D01*
X123327592Y-80137000D01*
X123597490Y-80083314D01*
X123851727Y-79978005D01*
X124080535Y-79825120D01*
X124200090Y-79705565D01*
X124944040Y-79705565D01*
X125011020Y-79945656D01*
X125260048Y-80062756D01*
X125527135Y-80129023D01*
X125802017Y-80141910D01*
X126074133Y-80100922D01*
X126333023Y-80007636D01*
X126448980Y-79945656D01*
X126515960Y-79705565D01*
X125730000Y-78919605D01*
X124944040Y-79705565D01*
X124200090Y-79705565D01*
X124275120Y-79630535D01*
X124428005Y-79401727D01*
X124457692Y-79330057D01*
X124462364Y-79343023D01*
X124524344Y-79458980D01*
X124764435Y-79525960D01*
X125550395Y-78740000D01*
X124764435Y-77954040D01*
X124524344Y-78021020D01*
X124460515Y-78156760D01*
X124428005Y-78078273D01*
X124275120Y-77849465D01*
X124080535Y-77654880D01*
X123851727Y-77501995D01*
X123774485Y-77470000D01*
X123851727Y-77438005D01*
X124080535Y-77285120D01*
X124275120Y-77090535D01*
X124428005Y-76861727D01*
X124460000Y-76784485D01*
X124491995Y-76861727D01*
X124644880Y-77090535D01*
X124839465Y-77285120D01*
X125068273Y-77438005D01*
X125139943Y-77467692D01*
X125126977Y-77472364D01*
X125011020Y-77534344D01*
X124944040Y-77774435D01*
X125730000Y-78560395D01*
X126515960Y-77774435D01*
X126448980Y-77534344D01*
X126313240Y-77470515D01*
X126391727Y-77438005D01*
X126620535Y-77285120D01*
X126815120Y-77090535D01*
X126968005Y-76861727D01*
X127000000Y-76784485D01*
X127031995Y-76861727D01*
X127184880Y-77090535D01*
X127379465Y-77285120D01*
X127608273Y-77438005D01*
X127685515Y-77470000D01*
X127608273Y-77501995D01*
X127379465Y-77654880D01*
X127184880Y-77849465D01*
X127031995Y-78078273D01*
X127002308Y-78149943D01*
X126997636Y-78136977D01*
X126935656Y-78021020D01*
X126695565Y-77954040D01*
X125909605Y-78740000D01*
X126695565Y-79525960D01*
X126935656Y-79458980D01*
X126999485Y-79323240D01*
X127031995Y-79401727D01*
X127184880Y-79630535D01*
X127379465Y-79825120D01*
X127608273Y-79978005D01*
X127862510Y-80083314D01*
X128132408Y-80137000D01*
X128407592Y-80137000D01*
X128677490Y-80083314D01*
X128931727Y-79978005D01*
X129160535Y-79825120D01*
X129355120Y-79630535D01*
X129508005Y-79401727D01*
X129540000Y-79324485D01*
X129571995Y-79401727D01*
X129724880Y-79630535D01*
X129919465Y-79825120D01*
X130148273Y-79978005D01*
X130402510Y-80083314D01*
X130672408Y-80137000D01*
X130947592Y-80137000D01*
X131217490Y-80083314D01*
X131471727Y-79978005D01*
X131700535Y-79825120D01*
X131895120Y-79630535D01*
X132048005Y-79401727D01*
X132080000Y-79324485D01*
X132111995Y-79401727D01*
X132264880Y-79630535D01*
X132459465Y-79825120D01*
X132688273Y-79978005D01*
X132942510Y-80083314D01*
X133212408Y-80137000D01*
X133487592Y-80137000D01*
X133757490Y-80083314D01*
X134011727Y-79978005D01*
X134240535Y-79825120D01*
X134435120Y-79630535D01*
X134588005Y-79401727D01*
X134620000Y-79324485D01*
X134651995Y-79401727D01*
X134804880Y-79630535D01*
X134999465Y-79825120D01*
X135228273Y-79978005D01*
X135482510Y-80083314D01*
X135752408Y-80137000D01*
X136027592Y-80137000D01*
X136297490Y-80083314D01*
X136551727Y-79978005D01*
X136780535Y-79825120D01*
X136975120Y-79630535D01*
X137128005Y-79401727D01*
X137160000Y-79324485D01*
X137191995Y-79401727D01*
X137344880Y-79630535D01*
X137539465Y-79825120D01*
X137768273Y-79978005D01*
X138022510Y-80083314D01*
X138292408Y-80137000D01*
X138567592Y-80137000D01*
X138837490Y-80083314D01*
X139091727Y-79978005D01*
X139320535Y-79825120D01*
X139515120Y-79630535D01*
X139668005Y-79401727D01*
X139700000Y-79324485D01*
X139731995Y-79401727D01*
X139884880Y-79630535D01*
X140079465Y-79825120D01*
X140308273Y-79978005D01*
X140562510Y-80083314D01*
X140832408Y-80137000D01*
X141107592Y-80137000D01*
X141377490Y-80083314D01*
X141631727Y-79978005D01*
X141860535Y-79825120D01*
X142055120Y-79630535D01*
X142208005Y-79401727D01*
X142240000Y-79324485D01*
X142271995Y-79401727D01*
X142424880Y-79630535D01*
X142619465Y-79825120D01*
X142848273Y-79978005D01*
X143102510Y-80083314D01*
X143372408Y-80137000D01*
X143647592Y-80137000D01*
X143917490Y-80083314D01*
X144171727Y-79978005D01*
X144400535Y-79825120D01*
X144520090Y-79705565D01*
X145264040Y-79705565D01*
X145331020Y-79945656D01*
X145580048Y-80062756D01*
X145847135Y-80129023D01*
X146122017Y-80141910D01*
X146394133Y-80100922D01*
X146653023Y-80007636D01*
X146768980Y-79945656D01*
X146835960Y-79705565D01*
X146050000Y-78919605D01*
X145264040Y-79705565D01*
X144520090Y-79705565D01*
X144595120Y-79630535D01*
X144748005Y-79401727D01*
X144777692Y-79330057D01*
X144782364Y-79343023D01*
X144844344Y-79458980D01*
X145084435Y-79525960D01*
X145870395Y-78740000D01*
X145084435Y-77954040D01*
X144844344Y-78021020D01*
X144780515Y-78156760D01*
X144748005Y-78078273D01*
X144595120Y-77849465D01*
X144400535Y-77654880D01*
X144171727Y-77501995D01*
X144094485Y-77470000D01*
X144171727Y-77438005D01*
X144400535Y-77285120D01*
X144595120Y-77090535D01*
X144748005Y-76861727D01*
X144780000Y-76784485D01*
X144811995Y-76861727D01*
X144964880Y-77090535D01*
X145159465Y-77285120D01*
X145388273Y-77438005D01*
X145459943Y-77467692D01*
X145446977Y-77472364D01*
X145331020Y-77534344D01*
X145264040Y-77774435D01*
X146050000Y-78560395D01*
X146835960Y-77774435D01*
X146768980Y-77534344D01*
X146633240Y-77470515D01*
X146711727Y-77438005D01*
X146940535Y-77285120D01*
X147135120Y-77090535D01*
X147288005Y-76861727D01*
X147320000Y-76784485D01*
X147351995Y-76861727D01*
X147504880Y-77090535D01*
X147699465Y-77285120D01*
X147928273Y-77438005D01*
X148005515Y-77470000D01*
X147928273Y-77501995D01*
X147699465Y-77654880D01*
X147504880Y-77849465D01*
X147351995Y-78078273D01*
X147322308Y-78149943D01*
X147317636Y-78136977D01*
X147255656Y-78021020D01*
X147015565Y-77954040D01*
X146229605Y-78740000D01*
X147015565Y-79525960D01*
X147255656Y-79458980D01*
X147319485Y-79323240D01*
X147351995Y-79401727D01*
X147504880Y-79630535D01*
X147699465Y-79825120D01*
X147928273Y-79978005D01*
X148182510Y-80083314D01*
X148452408Y-80137000D01*
X148727592Y-80137000D01*
X148997490Y-80083314D01*
X149251727Y-79978005D01*
X149480535Y-79825120D01*
X149675120Y-79630535D01*
X149828005Y-79401727D01*
X149860000Y-79324485D01*
X149891995Y-79401727D01*
X150044880Y-79630535D01*
X150239465Y-79825120D01*
X150468273Y-79978005D01*
X150722510Y-80083314D01*
X150992408Y-80137000D01*
X151267592Y-80137000D01*
X151537490Y-80083314D01*
X151791727Y-79978005D01*
X152020535Y-79825120D01*
X152215120Y-79630535D01*
X152368005Y-79401727D01*
X152400000Y-79324485D01*
X152431995Y-79401727D01*
X152584880Y-79630535D01*
X152779465Y-79825120D01*
X153008273Y-79978005D01*
X153262510Y-80083314D01*
X153532408Y-80137000D01*
X153807592Y-80137000D01*
X154077490Y-80083314D01*
X154331727Y-79978005D01*
X154560535Y-79825120D01*
X154755120Y-79630535D01*
X154908005Y-79401727D01*
X154940000Y-79324485D01*
X154971995Y-79401727D01*
X155124880Y-79630535D01*
X155319465Y-79825120D01*
X155548273Y-79978005D01*
X155802510Y-80083314D01*
X156072408Y-80137000D01*
X156347592Y-80137000D01*
X156617490Y-80083314D01*
X156871727Y-79978005D01*
X157100535Y-79825120D01*
X157295120Y-79630535D01*
X157448005Y-79401727D01*
X157480000Y-79324485D01*
X157511995Y-79401727D01*
X157664880Y-79630535D01*
X157859465Y-79825120D01*
X158088273Y-79978005D01*
X158342510Y-80083314D01*
X158612408Y-80137000D01*
X158887592Y-80137000D01*
X159157490Y-80083314D01*
X159411727Y-79978005D01*
X159640535Y-79825120D01*
X159835120Y-79630535D01*
X159988005Y-79401727D01*
X160020000Y-79324485D01*
X160051995Y-79401727D01*
X160204880Y-79630535D01*
X160399465Y-79825120D01*
X160628273Y-79978005D01*
X160882510Y-80083314D01*
X161152408Y-80137000D01*
X161427592Y-80137000D01*
X161697490Y-80083314D01*
X161951727Y-79978005D01*
X162180535Y-79825120D01*
X162300090Y-79705565D01*
X163044040Y-79705565D01*
X163111020Y-79945656D01*
X163360048Y-80062756D01*
X163627135Y-80129023D01*
X163902017Y-80141910D01*
X164174133Y-80100922D01*
X164433023Y-80007636D01*
X164548980Y-79945656D01*
X164615960Y-79705565D01*
X163830000Y-78919605D01*
X163044040Y-79705565D01*
X162300090Y-79705565D01*
X162375120Y-79630535D01*
X162528005Y-79401727D01*
X162557692Y-79330057D01*
X162562364Y-79343023D01*
X162624344Y-79458980D01*
X162864435Y-79525960D01*
X163650395Y-78740000D01*
X162864435Y-77954040D01*
X162624344Y-78021020D01*
X162560515Y-78156760D01*
X162528005Y-78078273D01*
X162375120Y-77849465D01*
X162180535Y-77654880D01*
X161951727Y-77501995D01*
X161874485Y-77470000D01*
X161951727Y-77438005D01*
X162180535Y-77285120D01*
X162375120Y-77090535D01*
X162528005Y-76861727D01*
X162560000Y-76784485D01*
X162591995Y-76861727D01*
X162744880Y-77090535D01*
X162939465Y-77285120D01*
X163168273Y-77438005D01*
X163239943Y-77467692D01*
X163226977Y-77472364D01*
X163111020Y-77534344D01*
X163044040Y-77774435D01*
X163830000Y-78560395D01*
X164615960Y-77774435D01*
X164548980Y-77534344D01*
X164413240Y-77470515D01*
X164491727Y-77438005D01*
X164720535Y-77285120D01*
X164915120Y-77090535D01*
X165068005Y-76861727D01*
X165157993Y-76644479D01*
X165065000Y-77111984D01*
G36*
X124099774Y-96821898D02*
G01*
X124177795Y-97010256D01*
X124291063Y-97179774D01*
X124435226Y-97323937D01*
X124604744Y-97437205D01*
X124793102Y-97515226D01*
X124993061Y-97555000D01*
X125019843Y-97555000D01*
X127485001Y-100020159D01*
X127485000Y-105366289D01*
X127466063Y-105385226D01*
X127352795Y-105554744D01*
X127274774Y-105743102D01*
X127235000Y-105943061D01*
X127235000Y-105969842D01*
X126602136Y-106602707D01*
X126647205Y-106535256D01*
X126725226Y-106346898D01*
X126765000Y-106146939D01*
X126765000Y-105943061D01*
X126725226Y-105743102D01*
X126647205Y-105554744D01*
X126533937Y-105385226D01*
X126490000Y-105341289D01*
X126490000Y-102272333D01*
X126493677Y-102235000D01*
X126479003Y-102086014D01*
X126435546Y-101942753D01*
X126364974Y-101810724D01*
X126293799Y-101723997D01*
X126270001Y-101694999D01*
X126241004Y-101671202D01*
X121472735Y-96902934D01*
X121586898Y-96880226D01*
X121775256Y-96802205D01*
X121944774Y-96688937D01*
X121963711Y-96670000D01*
X124069560Y-96670000D01*
X124099774Y-96821898D01*
G37*
X124099774Y-96821898D02*
X124177795Y-97010256D01*
X124291063Y-97179774D01*
X124435226Y-97323937D01*
X124604744Y-97437205D01*
X124793102Y-97515226D01*
X124993061Y-97555000D01*
X125019843Y-97555000D01*
X127485001Y-100020159D01*
X127485000Y-105366289D01*
X127466063Y-105385226D01*
X127352795Y-105554744D01*
X127274774Y-105743102D01*
X127235000Y-105943061D01*
X127235000Y-105969842D01*
X126602136Y-106602707D01*
X126647205Y-106535256D01*
X126725226Y-106346898D01*
X126765000Y-106146939D01*
X126765000Y-105943061D01*
X126725226Y-105743102D01*
X126647205Y-105554744D01*
X126533937Y-105385226D01*
X126490000Y-105341289D01*
X126490000Y-102272333D01*
X126493677Y-102235000D01*
X126479003Y-102086014D01*
X126435546Y-101942753D01*
X126364974Y-101810724D01*
X126293799Y-101723997D01*
X126270001Y-101694999D01*
X126241004Y-101671202D01*
X121472735Y-96902934D01*
X121586898Y-96880226D01*
X121775256Y-96802205D01*
X121944774Y-96688937D01*
X121963711Y-96670000D01*
X124069560Y-96670000D01*
X124099774Y-96821898D01*
G36*
X165876511Y-75152823D02*
G01*
X165478705Y-75748182D01*
X165220012Y-76372721D01*
X165227000Y-76337592D01*
X165227000Y-76062408D01*
X165173314Y-75792510D01*
X165068005Y-75538273D01*
X164915120Y-75309465D01*
X164720535Y-75114880D01*
X164491727Y-74961995D01*
X164237490Y-74856686D01*
X163967592Y-74803000D01*
X163692408Y-74803000D01*
X163422510Y-74856686D01*
X163168273Y-74961995D01*
X162939465Y-75114880D01*
X162744880Y-75309465D01*
X162591995Y-75538273D01*
X162560000Y-75615515D01*
X162528005Y-75538273D01*
X162375120Y-75309465D01*
X162180535Y-75114880D01*
X161951727Y-74961995D01*
X161697490Y-74856686D01*
X161427592Y-74803000D01*
X161152408Y-74803000D01*
X160882510Y-74856686D01*
X160628273Y-74961995D01*
X160399465Y-75114880D01*
X160204880Y-75309465D01*
X160051995Y-75538273D01*
X160020000Y-75615515D01*
X159988005Y-75538273D01*
X159835120Y-75309465D01*
X159640535Y-75114880D01*
X159411727Y-74961995D01*
X159157490Y-74856686D01*
X158887592Y-74803000D01*
X158612408Y-74803000D01*
X158342510Y-74856686D01*
X158088273Y-74961995D01*
X157859465Y-75114880D01*
X157664880Y-75309465D01*
X157511995Y-75538273D01*
X157482308Y-75609943D01*
X157477636Y-75596977D01*
X157415656Y-75481020D01*
X157175565Y-75414040D01*
X156389605Y-76200000D01*
X157175565Y-76985960D01*
X157415656Y-76918980D01*
X157479485Y-76783240D01*
X157511995Y-76861727D01*
X157664880Y-77090535D01*
X157859465Y-77285120D01*
X158088273Y-77438005D01*
X158165515Y-77470000D01*
X158088273Y-77501995D01*
X157859465Y-77654880D01*
X157664880Y-77849465D01*
X157511995Y-78078273D01*
X157480000Y-78155515D01*
X157448005Y-78078273D01*
X157295120Y-77849465D01*
X157100535Y-77654880D01*
X156871727Y-77501995D01*
X156800057Y-77472308D01*
X156813023Y-77467636D01*
X156928980Y-77405656D01*
X156995960Y-77165565D01*
X156210000Y-76379605D01*
X155424040Y-77165565D01*
X155491020Y-77405656D01*
X155626760Y-77469485D01*
X155548273Y-77501995D01*
X155319465Y-77654880D01*
X155124880Y-77849465D01*
X154971995Y-78078273D01*
X154940000Y-78155515D01*
X154908005Y-78078273D01*
X154755120Y-77849465D01*
X154560535Y-77654880D01*
X154331727Y-77501995D01*
X154254485Y-77470000D01*
X154331727Y-77438005D01*
X154560535Y-77285120D01*
X154755120Y-77090535D01*
X154908005Y-76861727D01*
X154937692Y-76790057D01*
X154942364Y-76803023D01*
X155004344Y-76918980D01*
X155244435Y-76985960D01*
X156030395Y-76200000D01*
X155244435Y-75414040D01*
X155004344Y-75481020D01*
X154940515Y-75616760D01*
X154908005Y-75538273D01*
X154755120Y-75309465D01*
X154680090Y-75234435D01*
X155424040Y-75234435D01*
X156210000Y-76020395D01*
X156995960Y-75234435D01*
X156928980Y-74994344D01*
X156679952Y-74877244D01*
X156412865Y-74810977D01*
X156137983Y-74798090D01*
X155865867Y-74839078D01*
X155606977Y-74932364D01*
X155491020Y-74994344D01*
X155424040Y-75234435D01*
X154680090Y-75234435D01*
X154560535Y-75114880D01*
X154331727Y-74961995D01*
X154077490Y-74856686D01*
X153807592Y-74803000D01*
X153532408Y-74803000D01*
X153262510Y-74856686D01*
X153008273Y-74961995D01*
X152779465Y-75114880D01*
X152584880Y-75309465D01*
X152431995Y-75538273D01*
X152402308Y-75609943D01*
X152397636Y-75596977D01*
X152335656Y-75481020D01*
X152095565Y-75414040D01*
X151309605Y-76200000D01*
X152095565Y-76985960D01*
X152335656Y-76918980D01*
X152399485Y-76783240D01*
X152431995Y-76861727D01*
X152584880Y-77090535D01*
X152779465Y-77285120D01*
X153008273Y-77438005D01*
X153085515Y-77470000D01*
X153008273Y-77501995D01*
X152779465Y-77654880D01*
X152584880Y-77849465D01*
X152431995Y-78078273D01*
X152400000Y-78155515D01*
X152368005Y-78078273D01*
X152215120Y-77849465D01*
X152020535Y-77654880D01*
X151791727Y-77501995D01*
X151720057Y-77472308D01*
X151733023Y-77467636D01*
X151848980Y-77405656D01*
X151915960Y-77165565D01*
X151130000Y-76379605D01*
X150344040Y-77165565D01*
X150411020Y-77405656D01*
X150546760Y-77469485D01*
X150468273Y-77501995D01*
X150239465Y-77654880D01*
X150044880Y-77849465D01*
X149891995Y-78078273D01*
X149860000Y-78155515D01*
X149828005Y-78078273D01*
X149675120Y-77849465D01*
X149480535Y-77654880D01*
X149251727Y-77501995D01*
X149174485Y-77470000D01*
X149251727Y-77438005D01*
X149480535Y-77285120D01*
X149675120Y-77090535D01*
X149828005Y-76861727D01*
X149857692Y-76790057D01*
X149862364Y-76803023D01*
X149924344Y-76918980D01*
X150164435Y-76985960D01*
X150950395Y-76200000D01*
X150164435Y-75414040D01*
X149924344Y-75481020D01*
X149860515Y-75616760D01*
X149828005Y-75538273D01*
X149675120Y-75309465D01*
X149600090Y-75234435D01*
X150344040Y-75234435D01*
X151130000Y-76020395D01*
X151915960Y-75234435D01*
X151848980Y-74994344D01*
X151599952Y-74877244D01*
X151332865Y-74810977D01*
X151057983Y-74798090D01*
X150785867Y-74839078D01*
X150526977Y-74932364D01*
X150411020Y-74994344D01*
X150344040Y-75234435D01*
X149600090Y-75234435D01*
X149480535Y-75114880D01*
X149251727Y-74961995D01*
X148997490Y-74856686D01*
X148727592Y-74803000D01*
X148452408Y-74803000D01*
X148182510Y-74856686D01*
X147928273Y-74961995D01*
X147699465Y-75114880D01*
X147504880Y-75309465D01*
X147351995Y-75538273D01*
X147320000Y-75615515D01*
X147288005Y-75538273D01*
X147135120Y-75309465D01*
X146940535Y-75114880D01*
X146711727Y-74961995D01*
X146457490Y-74856686D01*
X146187592Y-74803000D01*
X145912408Y-74803000D01*
X145642510Y-74856686D01*
X145388273Y-74961995D01*
X145159465Y-75114880D01*
X144964880Y-75309465D01*
X144811995Y-75538273D01*
X144780000Y-75615515D01*
X144748005Y-75538273D01*
X144595120Y-75309465D01*
X144400535Y-75114880D01*
X144171727Y-74961995D01*
X143917490Y-74856686D01*
X143647592Y-74803000D01*
X143372408Y-74803000D01*
X143102510Y-74856686D01*
X142848273Y-74961995D01*
X142619465Y-75114880D01*
X142424880Y-75309465D01*
X142271995Y-75538273D01*
X142240000Y-75615515D01*
X142208005Y-75538273D01*
X142055120Y-75309465D01*
X141860535Y-75114880D01*
X141631727Y-74961995D01*
X141377490Y-74856686D01*
X141107592Y-74803000D01*
X140832408Y-74803000D01*
X140562510Y-74856686D01*
X140308273Y-74961995D01*
X140079465Y-75114880D01*
X139884880Y-75309465D01*
X139731995Y-75538273D01*
X139702308Y-75609943D01*
X139697636Y-75596977D01*
X139635656Y-75481020D01*
X139395565Y-75414040D01*
X138609605Y-76200000D01*
X139395565Y-76985960D01*
X139635656Y-76918980D01*
X139699485Y-76783240D01*
X139731995Y-76861727D01*
X139884880Y-77090535D01*
X140079465Y-77285120D01*
X140308273Y-77438005D01*
X140385515Y-77470000D01*
X140308273Y-77501995D01*
X140079465Y-77654880D01*
X139884880Y-77849465D01*
X139731995Y-78078273D01*
X139700000Y-78155515D01*
X139668005Y-78078273D01*
X139515120Y-77849465D01*
X139320535Y-77654880D01*
X139091727Y-77501995D01*
X139020057Y-77472308D01*
X139033023Y-77467636D01*
X139148980Y-77405656D01*
X139215960Y-77165565D01*
X138430000Y-76379605D01*
X137644040Y-77165565D01*
X137711020Y-77405656D01*
X137846760Y-77469485D01*
X137768273Y-77501995D01*
X137539465Y-77654880D01*
X137344880Y-77849465D01*
X137191995Y-78078273D01*
X137160000Y-78155515D01*
X137128005Y-78078273D01*
X136975120Y-77849465D01*
X136780535Y-77654880D01*
X136551727Y-77501995D01*
X136474485Y-77470000D01*
X136551727Y-77438005D01*
X136780535Y-77285120D01*
X136975120Y-77090535D01*
X137128005Y-76861727D01*
X137157692Y-76790057D01*
X137162364Y-76803023D01*
X137224344Y-76918980D01*
X137464435Y-76985960D01*
X138250395Y-76200000D01*
X137464435Y-75414040D01*
X137224344Y-75481020D01*
X137160515Y-75616760D01*
X137128005Y-75538273D01*
X136975120Y-75309465D01*
X136900090Y-75234435D01*
X137644040Y-75234435D01*
X138430000Y-76020395D01*
X139215960Y-75234435D01*
X139148980Y-74994344D01*
X138899952Y-74877244D01*
X138632865Y-74810977D01*
X138357983Y-74798090D01*
X138085867Y-74839078D01*
X137826977Y-74932364D01*
X137711020Y-74994344D01*
X137644040Y-75234435D01*
X136900090Y-75234435D01*
X136780535Y-75114880D01*
X136551727Y-74961995D01*
X136297490Y-74856686D01*
X136027592Y-74803000D01*
X135752408Y-74803000D01*
X135482510Y-74856686D01*
X135228273Y-74961995D01*
X134999465Y-75114880D01*
X134804880Y-75309465D01*
X134651995Y-75538273D01*
X134620000Y-75615515D01*
X134588005Y-75538273D01*
X134435120Y-75309465D01*
X134240535Y-75114880D01*
X134011727Y-74961995D01*
X133757490Y-74856686D01*
X133487592Y-74803000D01*
X133212408Y-74803000D01*
X132942510Y-74856686D01*
X132688273Y-74961995D01*
X132459465Y-75114880D01*
X132264880Y-75309465D01*
X132111995Y-75538273D01*
X132082308Y-75609943D01*
X132077636Y-75596977D01*
X132015656Y-75481020D01*
X131775565Y-75414040D01*
X130989605Y-76200000D01*
X131775565Y-76985960D01*
X132015656Y-76918980D01*
X132079485Y-76783240D01*
X132111995Y-76861727D01*
X132264880Y-77090535D01*
X132459465Y-77285120D01*
X132688273Y-77438005D01*
X132765515Y-77470000D01*
X132688273Y-77501995D01*
X132459465Y-77654880D01*
X132264880Y-77849465D01*
X132111995Y-78078273D01*
X132080000Y-78155515D01*
X132048005Y-78078273D01*
X131895120Y-77849465D01*
X131700535Y-77654880D01*
X131471727Y-77501995D01*
X131400057Y-77472308D01*
X131413023Y-77467636D01*
X131528980Y-77405656D01*
X131595960Y-77165565D01*
X130810000Y-76379605D01*
X130024040Y-77165565D01*
X130091020Y-77405656D01*
X130226760Y-77469485D01*
X130148273Y-77501995D01*
X129919465Y-77654880D01*
X129724880Y-77849465D01*
X129571995Y-78078273D01*
X129540000Y-78155515D01*
X129508005Y-78078273D01*
X129355120Y-77849465D01*
X129160535Y-77654880D01*
X128931727Y-77501995D01*
X128854485Y-77470000D01*
X128931727Y-77438005D01*
X129160535Y-77285120D01*
X129355120Y-77090535D01*
X129508005Y-76861727D01*
X129537692Y-76790057D01*
X129542364Y-76803023D01*
X129604344Y-76918980D01*
X129844435Y-76985960D01*
X130630395Y-76200000D01*
X129844435Y-75414040D01*
X129604344Y-75481020D01*
X129540515Y-75616760D01*
X129508005Y-75538273D01*
X129355120Y-75309465D01*
X129280090Y-75234435D01*
X130024040Y-75234435D01*
X130810000Y-76020395D01*
X131595960Y-75234435D01*
X131528980Y-74994344D01*
X131279952Y-74877244D01*
X131012865Y-74810977D01*
X130737983Y-74798090D01*
X130465867Y-74839078D01*
X130206977Y-74932364D01*
X130091020Y-74994344D01*
X130024040Y-75234435D01*
X129280090Y-75234435D01*
X129160535Y-75114880D01*
X128931727Y-74961995D01*
X128677490Y-74856686D01*
X128407592Y-74803000D01*
X128132408Y-74803000D01*
X127862510Y-74856686D01*
X127608273Y-74961995D01*
X127379465Y-75114880D01*
X127184880Y-75309465D01*
X127031995Y-75538273D01*
X127000000Y-75615515D01*
X126968005Y-75538273D01*
X126815120Y-75309465D01*
X126620535Y-75114880D01*
X126391727Y-74961995D01*
X126137490Y-74856686D01*
X125867592Y-74803000D01*
X125592408Y-74803000D01*
X125322510Y-74856686D01*
X125068273Y-74961995D01*
X124839465Y-75114880D01*
X124644880Y-75309465D01*
X124491995Y-75538273D01*
X124460000Y-75615515D01*
X124428005Y-75538273D01*
X124275120Y-75309465D01*
X124080535Y-75114880D01*
X123851727Y-74961995D01*
X123597490Y-74856686D01*
X123327592Y-74803000D01*
X123052408Y-74803000D01*
X122782510Y-74856686D01*
X122528273Y-74961995D01*
X122299465Y-75114880D01*
X122104880Y-75309465D01*
X121951995Y-75538273D01*
X121922308Y-75609943D01*
X121917636Y-75596977D01*
X121855656Y-75481020D01*
X121615565Y-75414040D01*
X120829605Y-76200000D01*
X121615565Y-76985960D01*
X121855656Y-76918980D01*
X121919485Y-76783240D01*
X121951995Y-76861727D01*
X122104880Y-77090535D01*
X122299465Y-77285120D01*
X122528273Y-77438005D01*
X122605515Y-77470000D01*
X122528273Y-77501995D01*
X122299465Y-77654880D01*
X122104880Y-77849465D01*
X121951995Y-78078273D01*
X121920000Y-78155515D01*
X121888005Y-78078273D01*
X121735120Y-77849465D01*
X121540535Y-77654880D01*
X121311727Y-77501995D01*
X121240057Y-77472308D01*
X121253023Y-77467636D01*
X121368980Y-77405656D01*
X121435960Y-77165565D01*
X120650000Y-76379605D01*
X119864040Y-77165565D01*
X119931020Y-77405656D01*
X120066760Y-77469485D01*
X119988273Y-77501995D01*
X119759465Y-77654880D01*
X119564880Y-77849465D01*
X119411995Y-78078273D01*
X119380000Y-78155515D01*
X119348005Y-78078273D01*
X119195120Y-77849465D01*
X119000535Y-77654880D01*
X118771727Y-77501995D01*
X118694485Y-77470000D01*
X118771727Y-77438005D01*
X119000535Y-77285120D01*
X119195120Y-77090535D01*
X119348005Y-76861727D01*
X119377692Y-76790057D01*
X119382364Y-76803023D01*
X119444344Y-76918980D01*
X119684435Y-76985960D01*
X120470395Y-76200000D01*
X119684435Y-75414040D01*
X119444344Y-75481020D01*
X119380515Y-75616760D01*
X119348005Y-75538273D01*
X119195120Y-75309465D01*
X119120090Y-75234435D01*
X119864040Y-75234435D01*
X120650000Y-76020395D01*
X121435960Y-75234435D01*
X121368980Y-74994344D01*
X121119952Y-74877244D01*
X120852865Y-74810977D01*
X120577983Y-74798090D01*
X120305867Y-74839078D01*
X120046977Y-74932364D01*
X119931020Y-74994344D01*
X119864040Y-75234435D01*
X119120090Y-75234435D01*
X119000535Y-75114880D01*
X118771727Y-74961995D01*
X118517490Y-74856686D01*
X118247592Y-74803000D01*
X117972408Y-74803000D01*
X117702510Y-74856686D01*
X117448273Y-74961995D01*
X117219465Y-75114880D01*
X117024880Y-75309465D01*
X116954364Y-75415000D01*
X116878560Y-75415000D01*
X116840000Y-75411202D01*
X116801439Y-75415000D01*
X116725636Y-75415000D01*
X116655120Y-75309465D01*
X116460535Y-75114880D01*
X116231727Y-74961995D01*
X115977490Y-74856686D01*
X115707592Y-74803000D01*
X115432408Y-74803000D01*
X115162510Y-74856686D01*
X114908273Y-74961995D01*
X114679465Y-75114880D01*
X114484880Y-75309465D01*
X114331995Y-75538273D01*
X114226686Y-75792510D01*
X114173000Y-76062408D01*
X114173000Y-76337592D01*
X114179988Y-76372721D01*
X113921295Y-75748182D01*
X113523489Y-75152823D01*
X113035666Y-74665000D01*
X166364334Y-74665000D01*
X165876511Y-75152823D01*
G37*
X165876511Y-75152823D02*
X165478705Y-75748182D01*
X165220012Y-76372721D01*
X165227000Y-76337592D01*
X165227000Y-76062408D01*
X165173314Y-75792510D01*
X165068005Y-75538273D01*
X164915120Y-75309465D01*
X164720535Y-75114880D01*
X164491727Y-74961995D01*
X164237490Y-74856686D01*
X163967592Y-74803000D01*
X163692408Y-74803000D01*
X163422510Y-74856686D01*
X163168273Y-74961995D01*
X162939465Y-75114880D01*
X162744880Y-75309465D01*
X162591995Y-75538273D01*
X162560000Y-75615515D01*
X162528005Y-75538273D01*
X162375120Y-75309465D01*
X162180535Y-75114880D01*
X161951727Y-74961995D01*
X161697490Y-74856686D01*
X161427592Y-74803000D01*
X161152408Y-74803000D01*
X160882510Y-74856686D01*
X160628273Y-74961995D01*
X160399465Y-75114880D01*
X160204880Y-75309465D01*
X160051995Y-75538273D01*
X160020000Y-75615515D01*
X159988005Y-75538273D01*
X159835120Y-75309465D01*
X159640535Y-75114880D01*
X159411727Y-74961995D01*
X159157490Y-74856686D01*
X158887592Y-74803000D01*
X158612408Y-74803000D01*
X158342510Y-74856686D01*
X158088273Y-74961995D01*
X157859465Y-75114880D01*
X157664880Y-75309465D01*
X157511995Y-75538273D01*
X157482308Y-75609943D01*
X157477636Y-75596977D01*
X157415656Y-75481020D01*
X157175565Y-75414040D01*
X156389605Y-76200000D01*
X157175565Y-76985960D01*
X157415656Y-76918980D01*
X157479485Y-76783240D01*
X157511995Y-76861727D01*
X157664880Y-77090535D01*
X157859465Y-77285120D01*
X158088273Y-77438005D01*
X158165515Y-77470000D01*
X158088273Y-77501995D01*
X157859465Y-77654880D01*
X157664880Y-77849465D01*
X157511995Y-78078273D01*
X157480000Y-78155515D01*
X157448005Y-78078273D01*
X157295120Y-77849465D01*
X157100535Y-77654880D01*
X156871727Y-77501995D01*
X156800057Y-77472308D01*
X156813023Y-77467636D01*
X156928980Y-77405656D01*
X156995960Y-77165565D01*
X156210000Y-76379605D01*
X155424040Y-77165565D01*
X155491020Y-77405656D01*
X155626760Y-77469485D01*
X155548273Y-77501995D01*
X155319465Y-77654880D01*
X155124880Y-77849465D01*
X154971995Y-78078273D01*
X154940000Y-78155515D01*
X154908005Y-78078273D01*
X154755120Y-77849465D01*
X154560535Y-77654880D01*
X154331727Y-77501995D01*
X154254485Y-77470000D01*
X154331727Y-77438005D01*
X154560535Y-77285120D01*
X154755120Y-77090535D01*
X154908005Y-76861727D01*
X154937692Y-76790057D01*
X154942364Y-76803023D01*
X155004344Y-76918980D01*
X155244435Y-76985960D01*
X156030395Y-76200000D01*
X155244435Y-75414040D01*
X155004344Y-75481020D01*
X154940515Y-75616760D01*
X154908005Y-75538273D01*
X154755120Y-75309465D01*
X154680090Y-75234435D01*
X155424040Y-75234435D01*
X156210000Y-76020395D01*
X156995960Y-75234435D01*
X156928980Y-74994344D01*
X156679952Y-74877244D01*
X156412865Y-74810977D01*
X156137983Y-74798090D01*
X155865867Y-74839078D01*
X155606977Y-74932364D01*
X155491020Y-74994344D01*
X155424040Y-75234435D01*
X154680090Y-75234435D01*
X154560535Y-75114880D01*
X154331727Y-74961995D01*
X154077490Y-74856686D01*
X153807592Y-74803000D01*
X153532408Y-74803000D01*
X153262510Y-74856686D01*
X153008273Y-74961995D01*
X152779465Y-75114880D01*
X152584880Y-75309465D01*
X152431995Y-75538273D01*
X152402308Y-75609943D01*
X152397636Y-75596977D01*
X152335656Y-75481020D01*
X152095565Y-75414040D01*
X151309605Y-76200000D01*
X152095565Y-76985960D01*
X152335656Y-76918980D01*
X152399485Y-76783240D01*
X152431995Y-76861727D01*
X152584880Y-77090535D01*
X152779465Y-77285120D01*
X153008273Y-77438005D01*
X153085515Y-77470000D01*
X153008273Y-77501995D01*
X152779465Y-77654880D01*
X152584880Y-77849465D01*
X152431995Y-78078273D01*
X152400000Y-78155515D01*
X152368005Y-78078273D01*
X152215120Y-77849465D01*
X152020535Y-77654880D01*
X151791727Y-77501995D01*
X151720057Y-77472308D01*
X151733023Y-77467636D01*
X151848980Y-77405656D01*
X151915960Y-77165565D01*
X151130000Y-76379605D01*
X150344040Y-77165565D01*
X150411020Y-77405656D01*
X150546760Y-77469485D01*
X150468273Y-77501995D01*
X150239465Y-77654880D01*
X150044880Y-77849465D01*
X149891995Y-78078273D01*
X149860000Y-78155515D01*
X149828005Y-78078273D01*
X149675120Y-77849465D01*
X149480535Y-77654880D01*
X149251727Y-77501995D01*
X149174485Y-77470000D01*
X149251727Y-77438005D01*
X149480535Y-77285120D01*
X149675120Y-77090535D01*
X149828005Y-76861727D01*
X149857692Y-76790057D01*
X149862364Y-76803023D01*
X149924344Y-76918980D01*
X150164435Y-76985960D01*
X150950395Y-76200000D01*
X150164435Y-75414040D01*
X149924344Y-75481020D01*
X149860515Y-75616760D01*
X149828005Y-75538273D01*
X149675120Y-75309465D01*
X149600090Y-75234435D01*
X150344040Y-75234435D01*
X151130000Y-76020395D01*
X151915960Y-75234435D01*
X151848980Y-74994344D01*
X151599952Y-74877244D01*
X151332865Y-74810977D01*
X151057983Y-74798090D01*
X150785867Y-74839078D01*
X150526977Y-74932364D01*
X150411020Y-74994344D01*
X150344040Y-75234435D01*
X149600090Y-75234435D01*
X149480535Y-75114880D01*
X149251727Y-74961995D01*
X148997490Y-74856686D01*
X148727592Y-74803000D01*
X148452408Y-74803000D01*
X148182510Y-74856686D01*
X147928273Y-74961995D01*
X147699465Y-75114880D01*
X147504880Y-75309465D01*
X147351995Y-75538273D01*
X147320000Y-75615515D01*
X147288005Y-75538273D01*
X147135120Y-75309465D01*
X146940535Y-75114880D01*
X146711727Y-74961995D01*
X146457490Y-74856686D01*
X146187592Y-74803000D01*
X145912408Y-74803000D01*
X145642510Y-74856686D01*
X145388273Y-74961995D01*
X145159465Y-75114880D01*
X144964880Y-75309465D01*
X144811995Y-75538273D01*
X144780000Y-75615515D01*
X144748005Y-75538273D01*
X144595120Y-75309465D01*
X144400535Y-75114880D01*
X144171727Y-74961995D01*
X143917490Y-74856686D01*
X143647592Y-74803000D01*
X143372408Y-74803000D01*
X143102510Y-74856686D01*
X142848273Y-74961995D01*
X142619465Y-75114880D01*
X142424880Y-75309465D01*
X142271995Y-75538273D01*
X142240000Y-75615515D01*
X142208005Y-75538273D01*
X142055120Y-75309465D01*
X141860535Y-75114880D01*
X141631727Y-74961995D01*
X141377490Y-74856686D01*
X141107592Y-74803000D01*
X140832408Y-74803000D01*
X140562510Y-74856686D01*
X140308273Y-74961995D01*
X140079465Y-75114880D01*
X139884880Y-75309465D01*
X139731995Y-75538273D01*
X139702308Y-75609943D01*
X139697636Y-75596977D01*
X139635656Y-75481020D01*
X139395565Y-75414040D01*
X138609605Y-76200000D01*
X139395565Y-76985960D01*
X139635656Y-76918980D01*
X139699485Y-76783240D01*
X139731995Y-76861727D01*
X139884880Y-77090535D01*
X140079465Y-77285120D01*
X140308273Y-77438005D01*
X140385515Y-77470000D01*
X140308273Y-77501995D01*
X140079465Y-77654880D01*
X139884880Y-77849465D01*
X139731995Y-78078273D01*
X139700000Y-78155515D01*
X139668005Y-78078273D01*
X139515120Y-77849465D01*
X139320535Y-77654880D01*
X139091727Y-77501995D01*
X139020057Y-77472308D01*
X139033023Y-77467636D01*
X139148980Y-77405656D01*
X139215960Y-77165565D01*
X138430000Y-76379605D01*
X137644040Y-77165565D01*
X137711020Y-77405656D01*
X137846760Y-77469485D01*
X137768273Y-77501995D01*
X137539465Y-77654880D01*
X137344880Y-77849465D01*
X137191995Y-78078273D01*
X137160000Y-78155515D01*
X137128005Y-78078273D01*
X136975120Y-77849465D01*
X136780535Y-77654880D01*
X136551727Y-77501995D01*
X136474485Y-77470000D01*
X136551727Y-77438005D01*
X136780535Y-77285120D01*
X136975120Y-77090535D01*
X137128005Y-76861727D01*
X137157692Y-76790057D01*
X137162364Y-76803023D01*
X137224344Y-76918980D01*
X137464435Y-76985960D01*
X138250395Y-76200000D01*
X137464435Y-75414040D01*
X137224344Y-75481020D01*
X137160515Y-75616760D01*
X137128005Y-75538273D01*
X136975120Y-75309465D01*
X136900090Y-75234435D01*
X137644040Y-75234435D01*
X138430000Y-76020395D01*
X139215960Y-75234435D01*
X139148980Y-74994344D01*
X138899952Y-74877244D01*
X138632865Y-74810977D01*
X138357983Y-74798090D01*
X138085867Y-74839078D01*
X137826977Y-74932364D01*
X137711020Y-74994344D01*
X137644040Y-75234435D01*
X136900090Y-75234435D01*
X136780535Y-75114880D01*
X136551727Y-74961995D01*
X136297490Y-74856686D01*
X136027592Y-74803000D01*
X135752408Y-74803000D01*
X135482510Y-74856686D01*
X135228273Y-74961995D01*
X134999465Y-75114880D01*
X134804880Y-75309465D01*
X134651995Y-75538273D01*
X134620000Y-75615515D01*
X134588005Y-75538273D01*
X134435120Y-75309465D01*
X134240535Y-75114880D01*
X134011727Y-74961995D01*
X133757490Y-74856686D01*
X133487592Y-74803000D01*
X133212408Y-74803000D01*
X132942510Y-74856686D01*
X132688273Y-74961995D01*
X132459465Y-75114880D01*
X132264880Y-75309465D01*
X132111995Y-75538273D01*
X132082308Y-75609943D01*
X132077636Y-75596977D01*
X132015656Y-75481020D01*
X131775565Y-75414040D01*
X130989605Y-76200000D01*
X131775565Y-76985960D01*
X132015656Y-76918980D01*
X132079485Y-76783240D01*
X132111995Y-76861727D01*
X132264880Y-77090535D01*
X132459465Y-77285120D01*
X132688273Y-77438005D01*
X132765515Y-77470000D01*
X132688273Y-77501995D01*
X132459465Y-77654880D01*
X132264880Y-77849465D01*
X132111995Y-78078273D01*
X132080000Y-78155515D01*
X132048005Y-78078273D01*
X131895120Y-77849465D01*
X131700535Y-77654880D01*
X131471727Y-77501995D01*
X131400057Y-77472308D01*
X131413023Y-77467636D01*
X131528980Y-77405656D01*
X131595960Y-77165565D01*
X130810000Y-76379605D01*
X130024040Y-77165565D01*
X130091020Y-77405656D01*
X130226760Y-77469485D01*
X130148273Y-77501995D01*
X129919465Y-77654880D01*
X129724880Y-77849465D01*
X129571995Y-78078273D01*
X129540000Y-78155515D01*
X129508005Y-78078273D01*
X129355120Y-77849465D01*
X129160535Y-77654880D01*
X128931727Y-77501995D01*
X128854485Y-77470000D01*
X128931727Y-77438005D01*
X129160535Y-77285120D01*
X129355120Y-77090535D01*
X129508005Y-76861727D01*
X129537692Y-76790057D01*
X129542364Y-76803023D01*
X129604344Y-76918980D01*
X129844435Y-76985960D01*
X130630395Y-76200000D01*
X129844435Y-75414040D01*
X129604344Y-75481020D01*
X129540515Y-75616760D01*
X129508005Y-75538273D01*
X129355120Y-75309465D01*
X129280090Y-75234435D01*
X130024040Y-75234435D01*
X130810000Y-76020395D01*
X131595960Y-75234435D01*
X131528980Y-74994344D01*
X131279952Y-74877244D01*
X131012865Y-74810977D01*
X130737983Y-74798090D01*
X130465867Y-74839078D01*
X130206977Y-74932364D01*
X130091020Y-74994344D01*
X130024040Y-75234435D01*
X129280090Y-75234435D01*
X129160535Y-75114880D01*
X128931727Y-74961995D01*
X128677490Y-74856686D01*
X128407592Y-74803000D01*
X128132408Y-74803000D01*
X127862510Y-74856686D01*
X127608273Y-74961995D01*
X127379465Y-75114880D01*
X127184880Y-75309465D01*
X127031995Y-75538273D01*
X127000000Y-75615515D01*
X126968005Y-75538273D01*
X126815120Y-75309465D01*
X126620535Y-75114880D01*
X126391727Y-74961995D01*
X126137490Y-74856686D01*
X125867592Y-74803000D01*
X125592408Y-74803000D01*
X125322510Y-74856686D01*
X125068273Y-74961995D01*
X124839465Y-75114880D01*
X124644880Y-75309465D01*
X124491995Y-75538273D01*
X124460000Y-75615515D01*
X124428005Y-75538273D01*
X124275120Y-75309465D01*
X124080535Y-75114880D01*
X123851727Y-74961995D01*
X123597490Y-74856686D01*
X123327592Y-74803000D01*
X123052408Y-74803000D01*
X122782510Y-74856686D01*
X122528273Y-74961995D01*
X122299465Y-75114880D01*
X122104880Y-75309465D01*
X121951995Y-75538273D01*
X121922308Y-75609943D01*
X121917636Y-75596977D01*
X121855656Y-75481020D01*
X121615565Y-75414040D01*
X120829605Y-76200000D01*
X121615565Y-76985960D01*
X121855656Y-76918980D01*
X121919485Y-76783240D01*
X121951995Y-76861727D01*
X122104880Y-77090535D01*
X122299465Y-77285120D01*
X122528273Y-77438005D01*
X122605515Y-77470000D01*
X122528273Y-77501995D01*
X122299465Y-77654880D01*
X122104880Y-77849465D01*
X121951995Y-78078273D01*
X121920000Y-78155515D01*
X121888005Y-78078273D01*
X121735120Y-77849465D01*
X121540535Y-77654880D01*
X121311727Y-77501995D01*
X121240057Y-77472308D01*
X121253023Y-77467636D01*
X121368980Y-77405656D01*
X121435960Y-77165565D01*
X120650000Y-76379605D01*
X119864040Y-77165565D01*
X119931020Y-77405656D01*
X120066760Y-77469485D01*
X119988273Y-77501995D01*
X119759465Y-77654880D01*
X119564880Y-77849465D01*
X119411995Y-78078273D01*
X119380000Y-78155515D01*
X119348005Y-78078273D01*
X119195120Y-77849465D01*
X119000535Y-77654880D01*
X118771727Y-77501995D01*
X118694485Y-77470000D01*
X118771727Y-77438005D01*
X119000535Y-77285120D01*
X119195120Y-77090535D01*
X119348005Y-76861727D01*
X119377692Y-76790057D01*
X119382364Y-76803023D01*
X119444344Y-76918980D01*
X119684435Y-76985960D01*
X120470395Y-76200000D01*
X119684435Y-75414040D01*
X119444344Y-75481020D01*
X119380515Y-75616760D01*
X119348005Y-75538273D01*
X119195120Y-75309465D01*
X119120090Y-75234435D01*
X119864040Y-75234435D01*
X120650000Y-76020395D01*
X121435960Y-75234435D01*
X121368980Y-74994344D01*
X121119952Y-74877244D01*
X120852865Y-74810977D01*
X120577983Y-74798090D01*
X120305867Y-74839078D01*
X120046977Y-74932364D01*
X119931020Y-74994344D01*
X119864040Y-75234435D01*
X119120090Y-75234435D01*
X119000535Y-75114880D01*
X118771727Y-74961995D01*
X118517490Y-74856686D01*
X118247592Y-74803000D01*
X117972408Y-74803000D01*
X117702510Y-74856686D01*
X117448273Y-74961995D01*
X117219465Y-75114880D01*
X117024880Y-75309465D01*
X116954364Y-75415000D01*
X116878560Y-75415000D01*
X116840000Y-75411202D01*
X116801439Y-75415000D01*
X116725636Y-75415000D01*
X116655120Y-75309465D01*
X116460535Y-75114880D01*
X116231727Y-74961995D01*
X115977490Y-74856686D01*
X115707592Y-74803000D01*
X115432408Y-74803000D01*
X115162510Y-74856686D01*
X114908273Y-74961995D01*
X114679465Y-75114880D01*
X114484880Y-75309465D01*
X114331995Y-75538273D01*
X114226686Y-75792510D01*
X114173000Y-76062408D01*
X114173000Y-76337592D01*
X114179988Y-76372721D01*
X113921295Y-75748182D01*
X113523489Y-75152823D01*
X113035666Y-74665000D01*
X166364334Y-74665000D01*
X165876511Y-75152823D01*
M02*
