M48
; DRILL file {KiCad 5.1.5-52549c5~84~ubuntu18.04.1} date Thu 16 Jan 2020 02:56:40 AM EST
; FORMAT={-:-/ absolute / inch / decimal}
; #@! TF.CreationDate,2020-01-16T02:56:40-05:00
; #@! TF.GenerationSoftware,Kicad,Pcbnew,5.1.5-52549c5~84~ubuntu18.04.1
FMAT,2
INCH
T1C0.0157
T2C0.0197
T3C0.0256
T4C0.0295
T5C0.0300
T6C0.0315
T7C0.0354
T8C0.0394
T9C0.0421
T10C0.1063
%
G90
G05
T1
X4.65Y-3.625
X4.675Y-3.275
X4.675Y-3.7
X4.725Y-4.875
X4.775Y-3.675
X4.775Y-3.775
X4.775Y-4.375
X4.825Y-4.275
X4.875Y-3.825
X4.9Y-4.175
X4.9Y-4.775
X4.925Y-3.8
X4.95Y-4.175
X4.95Y-4.775
X5.0Y-3.275
X5.0Y-4.375
X5.05Y-4.175
X5.05Y-4.775
X5.075Y-3.475
X5.15Y-3.325
X5.35Y-3.425
X5.375Y-3.375
X5.575Y-3.825
X5.65Y-4.15
X5.725Y-3.575
X6.075Y-3.35
X6.125Y-3.275
X6.125Y-3.375
X6.125Y-3.425
X6.175Y-3.5
X6.175Y-3.75
X6.525Y-4.1
T2
X5.575Y-3.2409
X5.575Y-3.3591
X5.7915Y-3.2626
X5.7915Y-3.3374
T3
X5.1Y-3.55
X5.15Y-3.55
T4
X4.3963Y-4.3675
X4.3963Y-4.4463
X4.3963Y-4.525
X4.3963Y-4.6037
X4.3963Y-4.6825
X4.475Y-4.3675
X4.475Y-4.4463
X4.475Y-4.525
X4.475Y-4.6037
X4.475Y-4.6825
X4.3963Y-3.7675
X4.3963Y-3.8463
X4.3963Y-3.925
X4.3963Y-4.0037
X4.3963Y-4.0825
X4.475Y-3.7675
X4.475Y-3.8463
X4.475Y-3.925
X4.475Y-4.0037
X4.475Y-4.0825
T5
X4.55Y-3.0
X4.55Y-3.1
X4.65Y-3.0
X4.65Y-3.1
X4.75Y-3.0
X4.75Y-3.1
X4.85Y-3.0
X4.85Y-3.1
X4.95Y-3.0
X4.95Y-3.1
X5.05Y-3.0
X5.05Y-3.1
X5.15Y-3.0
X5.15Y-3.1
X5.25Y-3.0
X5.25Y-3.1
X5.35Y-3.0
X5.35Y-3.1
X5.45Y-3.0
X5.45Y-3.1
X5.55Y-3.0
X5.55Y-3.1
X5.65Y-3.0
X5.65Y-3.1
X5.75Y-3.0
X5.75Y-3.1
X5.85Y-3.0
X5.85Y-3.1
X5.95Y-3.0
X5.95Y-3.1
X6.05Y-3.0
X6.05Y-3.1
X6.15Y-3.0
X6.15Y-3.1
X6.25Y-3.0
X6.25Y-3.1
X6.35Y-3.0
X6.35Y-3.1
X6.45Y-3.0
X6.45Y-3.1
T6
X5.4Y-4.225
X5.4Y-4.525
X5.5Y-4.225
X5.5Y-4.525
X5.6Y-4.225
X5.6Y-4.525
X5.7Y-4.225
X5.7Y-4.525
X5.975Y-4.225
X5.975Y-4.525
X6.075Y-4.225
X6.075Y-4.525
X6.175Y-4.225
X6.175Y-4.525
X6.275Y-4.225
X6.275Y-4.525
T7
X5.9774Y-4.975
X6.0758Y-4.975
X6.1742Y-4.975
X6.2726Y-4.975
X5.4024Y-4.975
X5.5008Y-4.975
X5.5992Y-4.975
X5.6976Y-4.975
T8
X4.675Y-4.975
X4.775Y-4.975
X4.875Y-4.975
X4.975Y-4.975
T9
X6.5Y-3.2772
X6.5Y-3.7
T10
X4.3583Y-3.05
X4.3583Y-4.9791
X6.6417Y-3.05
X6.6417Y-4.9791
T0
M30
